<?xml version="1.0" encoding="UTF-8" standalone="no"?>
<svg
   viewBox="0 0 399.99999 400.00002"
   width="400"
   height="400"
   version="1.1"
   id="svg12"
   xml:space="preserve"
   xmlns:xlink="http://www.w3.org/1999/xlink"
   xmlns="http://www.w3.org/2000/svg"
   xmlns:svg="http://www.w3.org/2000/svg"><desc
     id="desc1">dragons1.dxf - scale = 1.000000, origin = (0.000000, 0.000000), method = manual</desc><defs
     id="defs4"><linearGradient
       id="swatch31"><stop
         style="stop-color:#000000;stop-opacity:1;"
         offset="0"
         id="stop31" /></linearGradient><linearGradient
       id="swatch21"><stop
         style="stop-color:#000000;stop-opacity:1;"
         offset="0"
         id="stop21" /></linearGradient><linearGradient
       id="swatch4"><stop
         style="stop-color:#1da62b;stop-opacity:1;"
         offset="0"
         id="stop4" /></linearGradient><linearGradient
       id="swatch6"><stop
         style="stop-color:#334f9f;stop-opacity:1;"
         offset="0"
         id="stop6" /></linearGradient><linearGradient
       id="swatch5"><stop
         style="stop-color:#e72d2e;stop-opacity:1;"
         offset="0"
         id="stop5" /></linearGradient><linearGradient
       id="swatch16"><stop
         style="stop-color:#d9d900;stop-opacity:1;"
         offset="0"
         id="stop16" /></linearGradient><linearGradient
       id="swatch18"><stop
         style="stop-color:#52bec8;stop-opacity:1;"
         offset="0"
         id="stop18" /></linearGradient><linearGradient
       id="swatch17"><stop
         style="stop-color:#b4539c;stop-opacity:1;"
         offset="0"
         id="stop17" /></linearGradient><linearGradient
       xlink:href="#swatch4"
       id="linearGradient31"
       x1="1669.8431"
       y1="355.64621"
       x2="1700.382"
       y2="355.64621"
       gradientUnits="userSpaceOnUse" /><linearGradient
       xlink:href="#swatch4"
       id="linearGradient32"
       x1="1686.2998"
       y1="322.80685"
       x2="1746.7599"
       y2="322.80685"
       gradientUnits="userSpaceOnUse" /><linearGradient
       xlink:href="#swatch4"
       id="linearGradient33"
       x1="1728.7794"
       y1="295.05875"
       x2="1760.1898"
       y2="295.05875"
       gradientUnits="userSpaceOnUse" /><linearGradient
       xlink:href="#swatch4"
       id="linearGradient34"
       x1="1742.5374"
       y1="228.07018"
       x2="1885.1025"
       y2="228.07018"
       gradientUnits="userSpaceOnUse" /><linearGradient
       xlink:href="#swatch4"
       id="linearGradient35"
       x1="1791.6788"
       y1="140.11362"
       x2="2009.6333"
       y2="140.11362"
       gradientUnits="userSpaceOnUse" /><linearGradient
       xlink:href="#swatch4"
       id="linearGradient36"
       x1="1918.3135"
       y1="101.31108"
       x2="1959.808"
       y2="101.31108"
       gradientUnits="userSpaceOnUse" /></defs><g
     id="g12"
     transform="translate(-1640)"><g
       id="g36"
       transform="matrix(0.88289756,0,0,0.88289756,215.69969,22.713992)"
       style="stroke-width:1.13263"><path
         id="path26"
         style="opacity:1;fill:url(#linearGradient31);stroke:none;stroke-width:3.3979;stroke-linejoin:round;stroke-dasharray:none;stroke-opacity:1;paint-order:fill markers stroke"
         d="m 1683.2246,340.44141 c -1.6552,0.24135 -2.5923,1.83369 -3.7129,2.90429 -3.0521,3.13857 -6.3717,6.06875 -8.9361,9.63955 -1.4154,2.43137 -0.6072,5.54643 0.9576,7.70616 2.0199,2.77308 4.6121,5.065 7.1309,7.37109 1.9767,1.72784 4.5917,3.28038 7.3144,2.64844 3.1595,-0.72673 5.4419,-3.21267 7.7372,-5.32418 2.0406,-2.04254 4.1095,-4.06491 6.0435,-6.20699 1.0342,-1.10567 0.7262,-3.02194 -0.525,-3.83276 -4.4848,-4.49753 -8.9603,-9.10444 -13.4624,-13.44286 -0.7045,-0.6936 -1.4618,-1.5302 -2.5472,-1.46274 z" /><path
         id="path27"
         style="opacity:1;fill:url(#linearGradient32);stroke:none;stroke-width:3.3979;stroke-linejoin:round;stroke-dasharray:none;stroke-opacity:1;paint-order:fill markers stroke"
         d="m 1729.8008,292.53125 c -1.7023,0.29179 -2.6579,1.937 -3.8514,3.01706 -13.1054,13.10539 -26.254,26.17103 -39.2697,39.3638 -0.8921,1.35455 -0.097,3.20965 1.1836,4.00977 4.9401,4.73358 9.419,10.02524 15.033,13.99735 1.4768,0.58406 3.012,-0.45657 3.8785,-1.60614 12.5601,-12.17103 24.8479,-24.62094 36.9937,-37.20425 0.9873,-1.10646 2.1635,-2.11799 2.8585,-3.43892 0.4284,-1.28361 -0.2303,-2.65206 -1.2448,-3.45186 -4.4491,-4.87527 -9.1445,-9.52233 -13.9076,-14.0872 -0.4779,-0.36208 -1.0604,-0.64281 -1.6738,-0.59961 z" /><path
         id="path28"
         style="opacity:1;fill:url(#linearGradient33);stroke:none;stroke-width:3.3979;stroke-linejoin:round;stroke-dasharray:none;stroke-opacity:1;paint-order:fill markers stroke"
         d="m 1732.7207,279.28711 c -2.1046,0.0497 -4.3327,2.00859 -3.8828,4.23437 0.6386,2.36908 2.6667,3.95417 4.2123,5.73546 6.8212,7.2635 13.8692,14.32847 21.2857,20.98329 1.2582,0.87281 3.0852,0.8022 4.1817,-0.30664 1.4769,-1.19832 2.3482,-3.63297 1.0109,-5.24143 -1.5447,-2.06804 -3.439,-3.83955 -5.1394,-5.77542 -5.8611,-6.24974 -11.8418,-12.40051 -18.1508,-18.19994 -1.004,-0.78803 -2.1894,-1.512 -3.5176,-1.42969 z" /><path
         id="path29"
         style="opacity:1;fill:url(#linearGradient34);stroke:none;stroke-width:3.3979;stroke-linejoin:round;stroke-dasharray:none;stroke-opacity:1;paint-order:fill markers stroke"
         d="m 1867.082,157.45508 c -1.6727,0.30332 -2.6243,1.91003 -3.8092,2.97125 -39.8153,39.51632 -79.6196,79.04383 -119.431,118.5639 -1.0308,0.78317 -1.7156,2.24937 -1.0259,3.47243 0.8093,1.40404 2.2527,2.27841 3.2869,3.50136 4.2284,4.15901 8.2886,8.5035 12.6863,12.48129 1.3731,0.68471 2.9663,-0.19998 3.8307,-1.30083 10.1315,-9.46889 19.8668,-19.34742 29.7815,-29.04034 30.7546,-30.28073 61.4469,-60.63774 92.1206,-91.0064 0.9422,-1.08578 0.7056,-2.89821 -0.4775,-3.71601 -4.4435,-4.57065 -8.9229,-9.10741 -13.4487,-13.59652 -0.8365,-0.73889 -1.5866,-1.63537 -2.5645,-2.1773 -0.3009,-0.1148 -0.6282,-0.15915 -0.9492,-0.15283 z" /><path
         id="path30"
         style="opacity:1;fill:url(#linearGradient35);stroke:none;stroke-width:3.3979;stroke-linejoin:round;stroke-dasharray:none;stroke-opacity:1;paint-order:fill markers stroke"
         d="m 1913.0684,30.759766 c -11.2503,0.05912 -22.6974,0.978021 -33.3266,4.918017 -7.2675,2.629782 -14.2868,5.938039 -20.9938,9.775342 -0.9346,0.551286 -2.1032,1.227775 -3.1122,1.852759 -4.3984,2.690013 -8.6388,5.635872 -12.7139,8.793725 -0.5258,0.423601 -1.3387,1.052719 -1.8752,1.486365 -7.6352,6.135428 -14.7175,13.169584 -20.9178,20.634729 -1.2014,1.456797 -2.3072,2.836355 -3.4757,4.359362 -4.01,5.207656 -7.7009,10.788038 -10.9052,16.453138 -2.8853,5.128537 -5.5189,10.620547 -7.6525,16.193967 -0.727,1.88341 -1.3929,3.76955 -2.0311,5.74077 -0.6879,2.13593 -1.2973,4.17818 -1.7969,6.39406 -0.6967,2.96845 -1.2256,5.97437 -1.6347,8.99542 -0.056,0.4473 -0.1807,1.46115 -0.2344,1.91992 -0.2918,2.63289 -0.4945,5.27521 -0.6054,7.92188 -0.039,1.02368 -0.081,2.31858 -0.093,3.44703 -0.1214,6.161 0.2688,12.34077 1.4197,18.40055 0.5091,2.79 1.1407,5.54621 1.8463,8.22939 0.433,1.59206 0.8548,3.20849 1.3973,4.83319 0.461,1.28369 1.5378,2.75964 3.0762,2.53124 1.6528,-0.39759 2.0804,-2.37382 2.5563,-3.65871 2.2565,-6.83827 5.504,-13.37952 9.8993,-19.10163 4.9563,-6.49822 11.2877,-11.99164 18.5499,-15.76457 3.6021,-1.90161 7.611,-3.04135 11.6927,-3.13415 4.8185,-0.1158 9.697,0.61244 14.2002,2.36024 4.1523,1.50781 7.2128,4.83964 10.4256,7.68623 9.2521,8.5936 18.2689,17.47463 26.5071,27.05451 3.5386,4.44908 5.109,10.18005 5.4018,15.78424 0.3012,6.32256 -1.4263,12.63767 -4.5129,18.1334 -5.4248,9.91834 -14.4859,17.46323 -24.5727,22.34025 -3.8343,1.89507 -7.8623,3.35303 -11.8421,4.89766 -1.2947,0.59718 -1.8699,2.55577 -0.6939,3.54316 0.8313,0.61781 1.9248,0.71077 2.8715,1.09481 5.6964,1.70867 11.5098,3.0637 17.4156,3.80363 1.6157,0.2069 3.4517,0.39797 5.1604,0.52578 7.5697,0.56952 15.2679,0.2689 22.8111,-1.0013 12.8959,-2.08897 25.3392,-6.70344 36.6055,-13.29554 2.3852,-1.36815 4.6989,-2.79961 6.951,-4.27507 4.39,-2.8774 8.6114,-6.00892 12.6653,-9.34254 1.1343,-0.94789 2.4392,-2.04288 3.612,-3.08142 12.6703,-11.19963 23.6862,-24.38773 31.8119,-39.25062 2.5008,-4.57994 4.7618,-9.45015 6.6035,-14.23828 0.6093,-1.59861 1.1703,-3.16283 1.7259,-4.83721 2.5601,-7.53932 4.0781,-15.44841 4.2259,-23.41793 0.1825,-6.26022 0.1817,-12.57152 -0.1386,-18.77463 -0.4631,-5.69543 -2.1543,-11.24576 -3.6962,-16.66594 -0.5232,-1.57026 -0.9426,-3.213759 -1.7545,-4.660622 -0.7013,-1.00513 -2.2598,-1.276382 -3.1496,-0.370227 -0.8887,0.910304 -0.9289,2.271651 -1.4473,3.382846 -2.2043,6.300513 -4.8863,12.503823 -8.8106,17.941673 -6.1284,8.67723 -14.7822,15.66243 -24.7695,19.37275 -3.9149,1.2435 -8.0902,1.10541 -12.1425,0.91675 -6.2189,-0.46842 -12.3402,-3.01973 -16.7595,-7.47307 -7.5568,-6.91877 -14.6776,-14.29221 -21.8694,-21.5842 -3.2209,-3.36001 -6.4999,-6.73533 -9.0146,-10.673495 -2.4027,-4.175859 -3.3579,-9.041697 -3.5411,-13.812121 -0.1736,-7.964619 3.0086,-15.662558 7.5831,-22.0573 4.5931,-6.357961 10.6656,-11.60911 17.5448,-15.363443 3.505,-1.902957 7.0915,-3.682979 10.8091,-5.131896 1.5357,-0.579534 3.2159,-0.800507 4.6691,-1.574176 1.1026,-0.678135 1.5355,-2.264396 0.7031,-3.318066 -1.176,-1.467882 -3.1839,-1.650029 -4.8442,-2.25213 -8.3568,-2.513998 -17.0844,-3.772299 -25.8136,-3.608497 z m -11.8282,98.644534 c 3.8978,0.18969 7.6415,2.66282 9.1243,6.31037 2.3185,4.65874 0.4563,10.82238 -3.9281,13.55967 -2.3626,1.51932 -5.3273,1.71503 -8.0419,1.32527 -3.1342,-0.48477 -6.128,-2.47877 -7.289,-5.50573 -1.3424,-3.20243 -1.296,-6.9536 0.012,-10.15519 1.8128,-3.7158 6.0893,-5.76217 10.1226,-5.53439 z" /><path
         id="path31"
         style="opacity:1;fill:url(#linearGradient36);stroke:none;stroke-width:3.3979;stroke-linejoin:round;stroke-dasharray:none;stroke-opacity:1;paint-order:fill markers stroke"
         d="m 1945.0508,80.042969 c -3.1847,0.322289 -5.5857,2.710628 -7.7598,4.835975 -6.4157,6.37372 -12.52,13.053832 -18.6105,19.733296 -0.9128,1.46292 0.018,3.33272 1.2513,4.29101 4.7799,4.50729 9.0773,9.57611 14.3905,13.48347 1.4294,0.62735 3.0134,-0.37452 3.7617,-1.5918 6.7178,-7.18883 13.9335,-13.93911 20.0756,-21.646304 1.5345,-2.143926 2.3183,-5.174962 0.9193,-7.58483 -1.626,-3.205731 -4.4891,-5.508175 -7.0618,-7.923283 -1.9878,-1.658075 -4.2204,-3.626826 -6.9663,-3.597534 z" /></g></g><style
     type="text/css"
     id="style1">
	.st0{display:none;}
</style></svg>
