<?xml version="1.0" encoding="UTF-8" standalone="no"?>
<svg
   viewBox="0 0 399.99999 400.00002"
   width="400"
   height="400"
   version="1.1"
   id="svg12"
   xml:space="preserve"
   xmlns="http://www.w3.org/2000/svg"
   xmlns:svg="http://www.w3.org/2000/svg"><desc
     id="desc1">dragons1.dxf - scale = 1.000000, origin = (0.000000, 0.000000), method = manual</desc><defs
     id="defs4"><linearGradient
       id="swatch31"><stop
         style="stop-color:#000000;stop-opacity:1;"
         offset="0"
         id="stop31" /></linearGradient><linearGradient
       id="swatch21"><stop
         style="stop-color:#000000;stop-opacity:1;"
         offset="0"
         id="stop21" /></linearGradient><linearGradient
       id="swatch4"><stop
         style="stop-color:#1da62b;stop-opacity:1;"
         offset="0"
         id="stop4" /></linearGradient><linearGradient
       id="swatch6"><stop
         style="stop-color:#334f9f;stop-opacity:1;"
         offset="0"
         id="stop6" /></linearGradient><linearGradient
       id="swatch5"><stop
         style="stop-color:#e72d2e;stop-opacity:1;"
         offset="0"
         id="stop5" /></linearGradient><linearGradient
       id="swatch16"><stop
         style="stop-color:#d9d900;stop-opacity:1;"
         offset="0"
         id="stop16" /></linearGradient><linearGradient
       id="swatch18"><stop
         style="stop-color:#52bec8;stop-opacity:1;"
         offset="0"
         id="stop18" /></linearGradient><linearGradient
       id="swatch17"><stop
         style="stop-color:#b4539c;stop-opacity:1;"
         offset="0"
         id="stop17" /></linearGradient></defs><g
     id="g12"
     transform="translate(-2050)"><g
       id="g37"
       transform="translate(2261.8834,149.13278)"><g
         id="g5"><path
           id="path51"
           d="m -26.509695,-124.13277 c -2.114453,0 -3.52409,1.40964 -3.52409,3.52409 v 20.08456 h -11.983284 v -19.73353 c 0,-2.11445 -1.409637,-3.52409 -3.52409,-3.52409 h -26.079647 c -2.114455,0 -3.52409,1.40964 -3.52409,3.52409 v 42.640118 c 0,0.352409 0.0056,1.058603 0.357917,1.411012 l 9.161256,18.680432 0.351035,180.492618 -7.04818,22.90659 v 0.35103 0.35104 52.86136 h -9.512292 c -2.114453,0 -3.52409,1.40963 -3.52409,3.52409 v 19.38248 c 0,2.11446 1.409637,3.5241 3.52409,3.5241 h 16.560472 v -5.9882 h 31.716813 c 2.114455,0 3.52409,-1.40964 3.52409,-3.52409 V 205.0737 c 0,-10.21985 8.102656,-18.32251 18.322514,-18.32251 10.219861,0 18.3293958,8.10266 18.3293958,18.32251 v 11.28123 c 0,2.11445 1.409636,3.52409 3.5240912,3.52409 h 31.716811 v 5.9882 h 16.209444 c 2.114455,0 3.524092,-1.40964 3.524092,-3.5241 v -19.38248 c 0,-2.11446 -1.409637,-3.52409 -3.524092,-3.52409 h -9.512287 v -52.86136 -0.35104 -0.35103 L 41.508001,122.96653 V -57.526088 l 9.161261,-18.680432 c 0.352403,-0.352409 0.351027,-1.058603 0.351027,-1.411012 v -42.640118 c 0,-2.11445 -1.409637,-3.52409 -3.524092,-3.52409 H 21.416555 c -2.114455,0 -3.524091,1.40964 -3.524091,3.52409 v 19.73353 H 5.9091758 v -20.08456 c 0,-1.05723 -0.348285,-1.75929 -1.053091,-2.46411 0,-0.35241 -1.055845,-1.05998 -2.113078,-1.05998 z m -39.116028,50.039328 h 107.48475 l -5.995079,12.334316 H -59.28649 Z m 53.914452,30.312685 c 5.9909536,0 10.572276,4.581317 10.572276,10.572271 v 16.560469 c 0,2.114454 -1.4096366,3.52409 -3.524095,3.52409 h -14.096362 c -2.114454,0 -3.52409,-1.40964 -3.52409,-3.52409 v -16.560469 c 0,-5.990954 4.581321,-10.572271 10.572271,-10.572271 z m 0,55.180921 c 5.9909536,0 10.572276,4.581313 10.572276,10.572275 v 16.560459 c 0,2.114455 -1.4096366,3.524091 -3.524095,3.524091 h -14.096362 c -2.114454,0 -3.52409,-1.409636 -3.52409,-3.524091 V 21.972439 c 0,-5.990962 4.581321,-10.572275 10.572271,-10.572275 z m 0,55.180927 c 5.9909536,0 10.572276,4.581313 10.572276,10.572261 v 16.56047 c 0,2.11446 -1.4096366,3.52409 -3.524095,3.52409 h -14.096362 c -2.114454,0 -3.52409,-1.40963 -3.52409,-3.52409 v -16.56047 c 0,-5.990948 4.581321,-10.572261 10.572271,-10.572261 z m -47.217301,60.260559 h 94.441493 l 4.935105,16.56047 H -63.863677 Z m 47.217301,66.24877 c -7.048181,0 -13.036378,5.99509 -13.036378,13.04326 v 19.73354 h 7.048181 v -19.73354 c 0,-2.11446 1.054474,-3.87787 2.464107,-4.93509 v 24.66863 h 7.0481807 v -24.66863 c 1.4096355,1.05722 2.4709929,2.82063 2.4709929,4.93509 v 19.73354 h 7.0481802 v -19.73354 c 0,-7.40059 -5.9950793,-13.04326 -13.0432638,-13.04326 z"
           style="fill:url(#swatch17);stroke-width:1" /></g></g></g><style
     type="text/css"
     id="style1">
	.st0{display:none;}
</style></svg>
