<?xml version="1.0" encoding="UTF-8" standalone="no"?>
<svg
   viewBox="0 0 399.99999 400.00002"
   width="400"
   height="400"
   version="1.1"
   id="svg12"
   xml:space="preserve"
   xmlns:xlink="http://www.w3.org/1999/xlink"
   xmlns="http://www.w3.org/2000/svg"
   xmlns:svg="http://www.w3.org/2000/svg"><desc
     id="desc1">dragons1.dxf - scale = 1.000000, origin = (0.000000, 0.000000), method = manual</desc><defs
     id="defs4"><linearGradient
       id="swatch21"><stop
         style="stop-color:#000000;stop-opacity:1;"
         offset="0"
         id="stop21" /></linearGradient><linearGradient
       id="swatch4"><stop
         style="stop-color:#1da62b;stop-opacity:1;"
         offset="0"
         id="stop4" /></linearGradient><linearGradient
       id="swatch6"><stop
         style="stop-color:#334f9f;stop-opacity:1;"
         offset="0"
         id="stop6" /></linearGradient><linearGradient
       id="swatch5"><stop
         style="stop-color:#e72d2e;stop-opacity:1;"
         offset="0"
         id="stop5" /></linearGradient><linearGradient
       id="swatch16"><stop
         style="stop-color:#d9d900;stop-opacity:1;"
         offset="0"
         id="stop16" /></linearGradient><linearGradient
       id="swatch18"><stop
         style="stop-color:#52bec8;stop-opacity:1;"
         offset="0"
         id="stop18" /></linearGradient><linearGradient
       id="swatch17"><stop
         style="stop-color:#b4539c;stop-opacity:1;"
         offset="0"
         id="stop17" /></linearGradient><linearGradient
       xlink:href="#swatch5"
       id="linearGradient20"
       gradientUnits="userSpaceOnUse"
       x1="267.39951"
       y1="-1554.5455"
       x2="5089.4619"
       y2="-1554.5455"
       gradientTransform="matrix(0.07239067,0,0,0.0722784,826.10853,312.2352)" /></defs><g
     id="layer4"
     transform="translate(-820.00002)"><rect
       style="fill:#ffffff;fill-opacity:1;fill-rule:evenodd"
       id="rect1"
       width="400"
       height="400"
       x="-1441.8834"
       y="-149.13278"
       rx="14.999947"
       ry="15.000001"
       transform="translate(2261.8834,149.13278)" /></g><g
     id="layer3"
     transform="translate(-820.00002)"><path
       id="path7"
       style="fill:url(#linearGradient20);stroke:none;stroke-width:1"
       d="m 1096.5257,82.489297 0.5295,0.7808 0.8363,1.0016 1.0613,1.1539 1.2046,1.2379 1.2661,1.2531 1.2458,1.2 1.1437,1.0781 0.9597,0.8879 0.5988,0.5495 0.5315,0.5 0.464,0.4675 0.3969,0.4521 0.3297,0.4534 0.2624,0.4719 0.1954,0.5072 0.1283,0.5596 0.1219,0.7547 0.091,0.6269 0.044,0.5059 -0.02,0.3916 -0.1003,0.2841 -0.1974,0.1836 -0.3106,0.09 h -0.4408 l -0.3279,-0.037 -0.3642,-0.062 -0.4013,-0.086 -0.4391,-0.1072 -0.4781,-0.1271 -0.5177,-0.145 -0.5585,-0.1612 -0.5998,-0.1753 -0.3971,-0.1162 -0.414,-0.1204 -0.4311,-0.1245 -0.4484,-0.1279 -0.4657,-0.131 -0.4835,-0.1336 -0.5014,-0.1355 -0.5196,-0.1372 -1.1399,-0.3031 -1.3261,-0.3627 -1.4948,-0.4161 -1.6461,-0.4641 -1.7796,-0.5059 -1.8958,-0.5421 -1.9944,-0.5724 -2.0754,-0.5969 -1.6199,-0.4661 -1.649,-0.4742 -1.6704,-0.4799 -1.6838,-0.4829 -1.6898,-0.4834 -1.6881,-0.4813 -1.6787,-0.4768 -1.6614,-0.4695 -1.9281,-0.5415 -1.8811,-0.5238 -1.821,-0.5017 -1.7487,-0.4756 -1.6636,-0.4452 -1.5657,-0.4107 -1.4555,-0.3718 -1.3324,-0.3288 0.4738,0.295 0.5945,0.2973 0.7016,0.3007 0.7949,0.3062 0.8745,0.313 0.9403,0.3216 0.9927,0.3317 1.031,0.3436 0.8182,0.2757 0.8267,0.2846 0.8288,0.2944 0.8248,0.3046 0.8139,0.316 0.797,0.3277 0.7736,0.3404 0.7437,0.3539 0.9358,0.4951 0.8558,0.5222 0.7607,0.5514 0.6502,0.582 0.5246,0.615 0.3837,0.6492 0.2277,0.6855 0.056,0.7238 -0.024,0.9625 0.01,0.832 0.016,0.7056 -8e-4,0.5833 -0.042,0.465 -0.1084,0.3508 -0.1994,0.2407 -0.3148,0.1347 -0.2796,0.033 -0.3461,-0.01 -0.4193,-0.051 -0.4997,-0.091 -0.5868,-0.1294 -0.6805,-0.1672 -0.7814,-0.2037 -0.8888,-0.2391 -0.4574,-0.1244 -0.4835,-0.1318 -0.5101,-0.1394 -0.5377,-0.1465 -0.566,-0.1537 -0.5948,-0.1607 -0.6244,-0.1674 -0.6546,-0.1742 -1.7176,-0.4571 -1.9591,-0.5225 -2.1785,-0.5793 -2.3756,-0.6279 -2.5504,-0.6676 -2.7031,-0.6991 -2.8335,-0.7218 -2.9417,-0.7362 -2.3548,-0.5785 -2.3964,-0.5778 -2.4278,-0.5733 -2.4482,-0.5645 -2.4584,-0.552 -2.4578,-0.5352 -2.4469,-0.5144 -2.4254,-0.4897 -2.7935,-0.5353 -2.7329,-0.4894 -2.6553,-0.437 -2.5608,-0.3781 -2.4494,-0.3127 -2.3213,-0.241 -2.1764,-0.1626 -2.0143,-0.078 0.3167,0.2531 0.6543,0.2383 0.9527,0.229 1.2118,0.2246 1.432,0.2254 1.6128,0.2317 1.7545,0.2429 1.8571,0.2596 1.255,0.1816 1.2713,0.1925 1.2766,0.2049 1.2707,0.2186 1.254,0.2338 1.2258,0.2504 1.1869,0.2687 1.137,0.2882 1.6846,0.5046 1.4837,0.5644 1.2379,0.63 0.947,0.7019 0.6112,0.7797 0.2303,0.8632 -0.1955,0.9531 -0.6664,1.0486 -1.2001,1.5137 -0.834,1.1624 -0.5855,0.8529 -0.4542,0.585 -0.4401,0.3588 -0.5431,0.1743 -0.7636,0.032 -1.1013,-0.069 -0.6146,-0.051 -0.7105,-0.059 -0.8161,-0.064 -0.9314,-0.064 -1.0565,-0.062 -1.1909,-0.056 -1.3353,-0.046 -1.4893,-0.034 -0.8472,-0.011 -0.894,-0.01 -0.9418,-9e-4 -0.9913,0.01 -1.042,0.012 -1.0942,0.019 -1.1478,0.026 -1.2026,0.034 -3.6879,0.1166 -4.2866,0.142 -4.82881,0.1707 -5.31364,0.2024 -5.74148,0.2372 -6.11249,0.275 -6.42637,0.315803 -6.68313,0.3597 -5.23291,0.3056 -5.32369,0.3343 -5.38929,0.3643 -5.42943,0.3956 -5.44458,0.4283 -5.43439,0.4625 -5.3989,0.4976 -5.33796,0.5344 -6.15561,0.6762 -5.99599,0.7312 -5.79549,0.7878 -5.55415,0.8469 -5.27179,0.9081 -4.94872,0.9717 -4.58451,1.0372 -4.17957,1.105 3.69277,-0.3485 4.00863,-0.3127 4.28972,-0.2669 4.53615,-0.2117 4.74781,-0.1466 4.92469,-0.072 5.06706,0.012 5.17452,0.1065 4.57221,0.177 4.60443,0.2623 4.61378,0.3538 4.6002,0.4518 4.56358,0.5564 4.50392,0.6672 4.4212,0.7844 4.31559,0.9082 5.06042,1.277 4.82996,1.4801 4.55849,1.6943 4.24588,1.9204 3.89213,2.1574 3.49752,2.4063 3.06147,2.6664 2.58457,2.938 1.68026,2.3525 1.37415,2.2112 1.08487,2.079 0.81242,1.9557 0.55692,1.8417 0.31841,1.7368 0.0967,1.6409 -0.10803,1.5544 -0.43278,1.9514 -0.72631,1.8351 -0.97968,1.7404 -1.19317,1.6672 -1.36694,1.6156 -1.50041,1.5854 -1.59415,1.5769 -1.64802,1.5897 -1.47411,1.4375 -1.457,1.4796 -1.41233,1.5368 -1.33966,1.6089 -1.23912,1.6958 -1.11074,1.798 -0.95465,1.9151 -0.77043,2.047 3.21106,0.777 3.08651,0.8668 2.96434,0.9578 2.84473,1.0501 2.72765,1.1434 2.61271,1.2378 2.50045,1.3335 2.39059,1.4303 2.51854,1.6957 2.39032,1.8171 2.2656,1.9403 2.144,2.0647 2.0258,2.1909 1.9107,2.3186 1.7992,2.4477 1.6908,2.5786 1.4119,2.3983 1.3315,2.5035 1.2534,2.6098 1.1778,2.7172 1.1042,2.8258 1.033,2.9354 0.9643,3.0463 0.8976,3.1581 -0.4045,-0.1331 -0.4045,-0.1254 -0.4048,-0.1176 -0.4051,-0.1101 -0.4055,-0.1026 -0.4057,-0.095 -0.4064,-0.088 -0.4068,-0.081 -0.4131,-0.075 -0.4138,-0.069 -0.4145,-0.062 -0.4154,-0.055 -0.4163,-0.049 -0.4173,-0.043 -0.4182,-0.037 -0.4195,-0.031 -0.4147,-0.025 -0.416,-0.019 -0.4171,-0.014 -0.4186,-0.01 h -0.4199 l -0.4214,7e-4 -0.423,0.01 -0.4244,0.01 0.13,0.1494 0.126,0.1482 0.121,0.1471 0.1154,0.1461 0.1089,0.1451 0.1016,0.1447 0.094,0.144 0.085,0.1436 0.091,0.1745 0.075,0.1742 0.058,0.1742 0.04,0.1744 0.02,0.175 -10e-4,0.1756 -0.024,0.1766 -0.048,0.1777 -0.054,0.1375 -0.069,0.1386 -0.086,0.1395 -0.1022,0.1407 -0.1197,0.1421 -0.1379,0.1434 -0.1566,0.1448 -0.1761,0.1466 -0.2191,0.16 -0.2295,0.1435 -0.2391,0.1279 -0.2477,0.1131 -0.2559,0.1 -0.263,0.087 -0.2693,0.075 -0.275,0.065 -0.2651,0.052 -0.2688,0.045 -0.2719,0.038 -0.2742,0.032 -0.2758,0.027 -0.2767,0.023 -0.2771,0.019 -0.2767,0.017 -0.2859,0.015 -0.2839,0.015 -0.2814,0.015 -0.2781,0.016 -0.274,0.018 -0.2692,0.021 -0.2635,0.026 -0.2572,0.03 0.052,0.1831 0.053,0.1693 0.053,0.1562 0.051,0.1444 0.048,0.1337 0.044,0.124 0.038,0.1153 0.031,0.1077 0.028,0.1363 0.01,0.1266 -0.013,0.1196 -0.039,0.1152 -0.068,0.1133 -0.1003,0.1144 -0.136,0.1175 -0.1752,0.1239 -0.096,0.06 -0.1055,0.062 -0.1152,0.065 -0.1255,0.068 -0.1362,0.071 -0.147,0.074 -0.1582,0.077 -0.1699,0.081 -0.3127,0.1463 -0.3273,0.1498 -0.341,0.1519 -0.3539,0.1529 -0.3664,0.1526 -0.3776,0.1511 -0.3884,0.1486 -0.3984,0.1446 -0.3556,0.1226 -0.3621,0.1179 -0.3681,0.1123 -0.3737,0.1063 -0.3786,0.099 -0.3833,0.091 -0.38726,0.083 -0.39094,0.073 -0.38175,0.061 -0.38415,0.051 -0.38627,0.04 -0.38755,0.028 -0.38867,0.015 h -0.38925 l -0.38938,-0.012 -0.38895,-0.027 0.58944,1.0112 -0.16811,0.7081 -0.84507,0.4328 -1.44132,0.1853 -1.95708,-0.034 -2.39201,-0.2263 -2.74618,-0.3903 -3.0199,-0.5267 -1.71377,-0.3308 -1.75717,-0.358 -1.78799,-0.3809 -1.8061,-0.3992 -1.8116,-0.4133 -1.80454,-0.423 -1.78474,-0.4283 -1.7525,-0.4291 -2.78577,-0.6988 -2.60635,-0.67 -2.37036,-0.6217 -2.07742,-0.5538 -1.7279,-0.4663 -1.32141,-0.3591 -0.85838,-0.2327 -0.33847,-0.086 -1.58086,-0.1855 -1.4966,-0.1825 -1.41911,-0.1784 -1.34856,-0.1731 -1.28465,-0.1664 -1.22767,-0.1587 -1.17762,-0.1495 -1.13436,-0.1392 -1.39875,-0.1611 -1.35323,-0.1395 -1.32212,-0.1152 -1.30529,-0.088 -1.30289,-0.059 -1.31462,-0.027 -1.34064,0.01 -1.38109,0.045 -1.13633,0.064 -1.17805,0.09 -1.22696,0.1183 -1.28295,0.1474 -1.34645,0.1777 -1.4167,0.2095 -1.49433,0.2427 -1.57917,0.2768 -1.87141,0.3429 -1.93362,0.363 -1.98947,0.3848 -2.03853,0.4083 -2.08152,0.4333 -2.11771,0.4603 -2.14768,0.4884 -2.17115,0.5185 -1.99867,0.5012 -2.00799,0.5289 -2.01224,0.5576 -2.01181,0.5879 -2.00615,0.6193 -1.99583,0.6517 -1.98043,0.6857 -1.96006,0.7207 -2.01138,0.7883 -1.97859,0.8289 -1.94027,0.8711 -1.89643,0.9147 -1.84695,0.9595 -1.79196,1.0058 -1.73143,1.0536 -1.66527,1.1025 -0.78244,0.5573 -0.76209,0.5745 -0.74228,0.5907 -0.72363,0.6066 -0.70538,0.6216 -0.68814,0.6361 -0.67173,0.65 -0.65604,0.663 -0.65025,0.6853 -0.63582,0.6975 -0.6221,0.7089 -0.60939,0.7198 -0.59736,0.7299 -0.5862,0.7393 -0.57601,0.7482 -0.56654,0.7562 -0.55495,0.7595 -0.54717,0.7663 -0.54025,0.7722 -0.5343,0.7775 -0.52893,0.7822 -0.52455,0.7861 -0.52102,0.7895 -0.51804,0.7921 -0.0673,-0.1314 -0.0656,-0.132 -0.0639,-0.1326 -0.0622,-0.1332 -0.0604,-0.1338 -0.0584,-0.1347 -0.0564,-0.1354 -0.0544,-0.1361 -0.0523,-0.1371 -0.05,-0.1379 -0.0478,-0.1388 -0.0454,-0.1396 -0.043,-0.1404 -0.0403,-0.1415 -0.0378,-0.1423 -0.0351,-0.1433 -0.0318,-0.1417 -0.029,-0.1427 -0.0262,-0.1437 -0.0233,-0.1447 -0.0202,-0.1457 -0.0173,-0.1467 -0.014,-0.1478 -0.0109,-0.1488 -0.20261,0.1324 -0.20105,0.1364 -0.19908,0.1405 -0.19695,0.1444 -0.19455,0.1482 -0.192,0.1519 -0.1889,0.1556 -0.18578,0.1591 -0.18437,0.1641 -0.18055,0.1676 -0.1766,0.1708 -0.17207,0.1739 -0.16754,0.1769 -0.16246,0.1799 -0.1575,0.1827 -0.15185,0.1854 -0.15355,0.198 -0.1469,0.2007 -0.13998,0.2034 -0.13262,0.2059 -0.12499,0.208 -0.11707,0.2104 -0.10872,0.2124 -0.10025,0.2142 -0.50207,0.087 -0.36577,4e-4 -0.2446,-0.076 -0.13856,-0.1416 -0.0477,-0.1969 0.0279,-0.242 0.0885,-0.2768 0.13389,-0.301 0.18239,-0.3487 0.19893,-0.3517 0.19469,-0.3407 0.17009,-0.3156 0.12499,-0.2766 0.0592,-0.2233 -0.0269,-0.1563 -0.13361,-0.075 h -0.12046 l -0.15892,0.027 -0.20035,0.057 -0.24489,0.09 -0.29253,0.1246 -0.34286,0.1615 -0.3966,0.2005 -0.453,0.2413 -0.81058,0.5274 -0.79418,0.6832 -0.77353,0.8261 -0.74865,0.9559 -0.7191,1.0723 -0.68559,1.1758 -0.64756,1.266 -0.605,1.3431 -0.45032,1.1199 -0.41822,1.154 -0.38387,1.1815 -0.34739,1.2022 -0.30851,1.216 -0.26765,1.2234 -0.22438,1.2238 -0.179,1.2177 -0.1469,1.3857 -0.0804,1.3583 -0.0105,1.3208 0.0626,1.2729 0.13941,1.2149 0.21943,1.1466 0.303,1.0679 0.38966,0.9792 2.9e-4,-5e-4 0.42374,-0.5301 0.44226,-0.5286 0.45966,-0.5266 0.47605,-0.524 0.49147,-0.5205 0.5056,-0.5164 0.51889,-0.5114 0.5312,-0.5061 0.51974,-0.4797 0.52907,-0.4734 0.53756,-0.4665 0.54491,-0.459 0.55141,-0.451 0.55693,-0.4421 0.56145,-0.4332 0.56527,-0.423 0.59638,-0.4327 0.59821,-0.4204 0.59906,-0.4077 0.59892,-0.3939 0.59751,-0.3797 0.59524,-0.3647 0.59171,-0.3489 0.58718,-0.3326 0.5459,-0.3024 0.53516,-0.2956 0.52497,-0.2897 0.51536,-0.2846 0.50673,-0.2805 0.4984,-0.2771 0.49104,-0.2744 0.48411,-0.2729 0.51847,-0.2955 0.51197,-0.2954 0.50631,-0.2968 0.50136,-0.2988 0.4974,-0.3021 0.49429,-0.3065 0.49189,-0.3119 0.49034,-0.3183 0.46799,-0.3115 0.46814,-0.3194 0.46884,-0.3282 0.47054,-0.3378 0.4728,-0.3484 0.47577,-0.3601 0.47945,-0.3726 0.48397,-0.3861 -0.22212,0.021 -0.22127,0.018 -0.22014,0.015 -0.21944,0.013 -0.21858,0.011 -0.21788,0.01 -0.21718,0.01 h -0.2166 -0.22014 l -0.21972,-3e-4 h -0.21943 -0.21916 l -0.21901,-0.01 -0.21901,-0.01 -0.21886,-0.01 -0.21901,-0.011 -0.21746,-0.012 -0.21774,-0.014 -0.21802,-0.015 -0.21844,-0.016 -0.21887,-0.017 -0.21943,-0.019 -0.22,-0.02 -0.22085,-0.021 0.22975,-0.1285 0.22905,-0.1292 0.22834,-0.1297 0.22764,-0.1304 0.22678,-0.1313 0.22594,-0.1322 0.22509,-0.1331 0.2241,-0.1341 0.22453,-0.1362 0.22339,-0.1374 0.22254,-0.1386 0.22156,-0.14 0.22056,-0.1415 0.21958,-0.143 0.21844,-0.1447 0.21746,-0.1462 0.21533,-0.148 0.21435,-0.1498 0.21307,-0.1517 0.21194,-0.1539 0.21081,-0.1558 0.20968,-0.1583 0.2084,-0.1605 0.207,-0.1628 -0.16925,0.016 -0.16796,0.013 -0.16712,0.011 -0.16599,0.01 -0.16515,0.01 h -0.16429 l -0.16358,-5e-4 h -0.16274 l -0.16613,-0.01 -0.16557,-0.01 -0.16514,-0.012 -0.16486,-0.015 -0.16443,-0.018 -0.16429,-0.021 -0.16402,-0.024 -0.16415,-0.027 -0.16019,-0.029 -0.16048,-0.032 -0.16061,-0.035 -0.16076,-0.037 -0.16132,-0.04 -0.16161,-0.043 -0.16217,-0.046 -0.16288,-0.049 0.14195,-0.11 0.1428,-0.1095 0.14365,-0.109 0.14436,-0.1086 0.14521,-0.1078 0.14605,-0.1072 0.14662,-0.1063 0.14733,-0.1053 0.14803,-0.1044 0.14874,-0.1035 0.14945,-0.1025 0.14987,-0.1012 0.15058,-0.1 0.151,-0.099 0.15157,-0.097 0.15213,-0.096 0.15539,-0.096 0.15595,-0.094 0.15623,-0.093 0.1568,-0.091 0.15694,-0.089 0.15751,-0.086 0.15764,-0.084 0.15794,-0.082 -0.0755,-0.03 -0.0861,-0.019 -0.0959,-0.01 -0.10406,-3e-4 -0.11142,0.01 -0.11735,0.013 -0.12244,0.018 -0.12612,0.022 -0.10533,0.02 -0.10661,0.021 -0.10703,0.022 -0.10703,0.022 -0.10604,0.021 -0.10477,0.02 -0.10265,0.017 -0.1,0.015 -0.13503,0.015 -0.12668,0.01 h -0.1165 l -0.10449,-0.017 -0.0908,-0.031 -0.0751,-0.047 -0.0578,-0.065 -0.0386,-0.085 0.0141,-0.068 0.0607,-0.1282 0.10321,-0.1808 0.14196,-0.2257 0.17631,-0.2632 0.20671,-0.2927 0.23329,-0.3149 0.25549,-0.3292 0.1698,-0.2103 0.17589,-0.211 0.18112,-0.2101 0.18536,-0.2071 0.18861,-0.2022 0.19073,-0.1955 0.19201,-0.1869 0.19228,-0.1763 0.27458,-0.2312 0.26991,-0.2001 0.26256,-0.1633 0.25195,-0.1211 0.23866,-0.073 0.22227,-0.02 0.20303,0.039 0.18083,0.1035 0.0577,-0.204 0.0595,-0.1948 0.0615,-0.1859 0.0641,-0.1771 0.0667,-0.1682 0.0698,-0.1596 0.0734,-0.151 0.0769,-0.1424 0.10378,-0.1687 0.11099,-0.1553 0.11891,-0.1419 0.12753,-0.1289 0.13687,-0.116 0.14676,-0.1032 0.1575,-0.091 0.16882,-0.079 0.1493,-0.056 0.15794,-0.048 0.16712,-0.039 0.17645,-0.031 0.18621,-0.023 0.19653,-0.015 0.20713,-0.01 h 0.21816 l 0.0556,-0.2069 0.0573,-0.2033 0.0597,-0.1992 0.0625,-0.1945 0.0657,-0.1892 0.0694,-0.1834 0.0737,-0.1768 0.0783,-0.17 0.1001,-0.1931 0.1083,-0.1814 0.11721,-0.1686 0.12683,-0.1548 0.13729,-0.1401 0.14859,-0.1243 0.16062,-0.1078 0.17348,-0.09 0.15836,-0.062 0.16868,-0.048 0.17956,-0.033 0.19101,-0.018 h 0.20275 l 0.21505,0.015 0.22792,0.032 0.24107,0.049 0.14209,-0.2177 0.14281,-0.2102 0.14379,-0.2024 0.14534,-0.1944 0.14733,-0.1863 0.14959,-0.1779 0.15227,-0.1694 0.15525,-0.1605 0.17999,-0.171 0.18507,-0.1591 0.19045,-0.1469 0.19681,-0.1347 0.20332,-0.122 0.21081,-0.109 0.21859,-0.095 0.22706,-0.082 0.20926,-0.062 0.21675,-0.05 0.22452,-0.039 0.23301,-0.027 0.24163,-0.016 h 0.25082 l 0.2603,0.01 0.27019,0.021 0.12739,-0.1645 0.12753,-0.1585 0.12782,-0.1526 0.12852,-0.1463 0.12937,-0.1396 0.13078,-0.1328 0.1322,-0.1259 0.13418,-0.1188 0.15524,-0.1253 0.1585,-0.1155 0.16203,-0.1049 0.16627,-0.094 0.1708,-0.083 0.17589,-0.071 0.18125,-0.059 0.18734,-0.047 0.1708,-0.031 0.17617,-0.021 0.18183,-0.011 h 0.18762 l 0.1937,0.011 0.20035,0.022 0.20713,0.033 0.2142,0.045 0.16528,-0.1455 0.16416,-0.1382 0.1633,-0.1306 0.16288,-0.1231 0.16245,-0.1152 0.16246,-0.1074 0.16288,-0.099 0.16344,-0.091 0.1855,-0.093 0.18706,-0.082 0.18875,-0.071 0.19116,-0.06 0.19356,-0.048 0.19667,-0.037 0.19992,-0.025 0.20374,-0.013 h 0.18423 l 0.18791,0.01 0.19172,0.018 0.19568,0.028 0.2002,0.038 0.20473,0.048 0.20954,0.059 0.21477,0.07 0.16415,-0.137 0.165,-0.1372 0.16585,-0.1366 0.1667,-0.1353 0.16782,-0.1327 0.1691,-0.1293 0.17023,-0.1249 0.17179,-0.1199 0.18607,-0.1216 0.18804,-0.1135 0.19003,-0.1039 0.19215,-0.093 0.1944,-0.082 0.19696,-0.069 0.1995,-0.055 0.20232,-0.04 0.19512,-0.022 0.1978,-0.01 0.20063,0.01 0.20346,0.028 0.20656,0.047 0.20982,0.066 0.21308,0.087 0.21646,0.1089 0.19427,-0.1041 0.19356,-0.1025 0.19271,-0.1002 0.19229,-0.097 0.19186,-0.094 0.19158,-0.09 0.19158,-0.085 0.19144,-0.08 0.20558,-0.079 0.20586,-0.072 0.20643,-0.063 0.20699,-0.054 0.2077,-0.044 0.20869,-0.033 0.20982,-0.022 0.21109,-0.01 h 0.20021 l 0.20162,0.015 0.20317,0.028 0.20473,0.042 0.20656,0.056 0.20869,0.071 0.21054,0.086 0.21293,0.1023 0.23767,-0.1326 0.23682,-0.1302 0.23598,-0.1269 0.23527,-0.1228 0.2347,-0.1177 0.23414,-0.1121 0.23385,-0.1053 0.23372,-0.098 0.2552,-0.097 0.25535,-0.086 0.25549,-0.074 0.25577,-0.061 0.25634,-0.046 0.25676,-0.031 0.25775,-0.014 h 0.25845 l 0.24065,0.021 0.24163,0.038 0.2429,0.056 0.24419,0.075 0.24573,0.094 0.24714,0.1152 0.24885,0.1366 0.25068,0.1591 0.2658,-0.1334 0.2651,-0.131 0.26454,-0.1275 0.26384,-0.1229 0.26312,-0.1174 0.26213,-0.1106 0.26143,-0.1029 0.26058,-0.094 0.288,-0.093 0.28702,-0.079 0.2856,-0.064 0.28419,-0.047 0.28292,-0.029 0.28136,-0.01 0.27995,0.013 0.27826,0.035 0.25365,0.054 0.25237,0.075 0.25068,0.098 0.24927,0.122 0.24757,0.1469 0.24601,0.1731 0.24432,0.2005 0.24248,0.2288 0.37369,-0.1858 0.37312,-0.1832 0.37256,-0.179 0.37185,-0.1735 0.37115,-0.1662 0.37044,-0.1574 0.36958,-0.1471 0.3686,-0.1352 0.40395,-0.1327 0.40267,-0.1147 0.4014,-0.095 0.40013,-0.072 0.39886,-0.048 0.39729,-0.022 0.39589,0.01 0.39447,0.037 0.36393,0.063 0.36267,0.093 0.36096,0.1239 0.35955,0.1569 0.35799,0.1911 0.35616,0.2273 0.3546,0.2648 0.35277,0.3041 0.39871,-0.1557 0.39489,-0.1496 0.39151,-0.1426 0.38825,-0.1347 0.385,-0.1255 0.38217,-0.1153 0.37935,-0.1042 0.3768,-0.092 0.41172,-0.086 0.40917,-0.069 0.40692,-0.05 0.40465,-0.03 0.40281,-0.01 0.40127,0.015 0.39998,0.039 0.39886,0.064 0.36506,0.083 0.3645,0.1071 0.36421,0.1319 0.36394,0.1577 0.36421,0.1848 0.36436,0.2127 0.36478,0.2418 0.36549,0.272 0.31982,-0.1 0.31925,-0.099 0.31869,-0.096 0.31784,-0.093 0.31686,-0.088 0.31557,-0.082 0.31445,-0.075 0.31303,-0.067 0.33481,-0.061 0.33297,-0.049 0.33056,-0.035 0.32831,-0.02 h 0.32561 l 0.32279,0.015 0.31982,0.035 0.31671,0.056 0.29593,0.074 0.29267,0.095 0.28942,0.1176 0.28589,0.1414 0.28235,0.1666 0.27839,0.1927 0.27443,0.2203 0.27034,0.2491 0.38769,-0.05 0.37821,-0.04 0.36916,-0.029 0.3604,-0.017 0.35191,-0.01 0.34386,0.01 0.33608,0.019 0.32859,0.032 0.36209,0.052 0.35347,0.069 0.34541,0.087 0.33778,0.1051 0.33071,0.1238 0.32406,0.1431 0.31784,0.1631 0.31218,0.1833 0.27288,0.1802 0.26906,0.1969 0.26553,0.2142 0.26255,0.2315 0.25973,0.2493 0.25719,0.2675 0.2552,0.286 0.25337,0.3049 0.3416,-0.03 0.33721,-0.022 0.33268,-0.014 0.32788,-0.01 H 949.28 l 0.31755,0.013 0.31191,0.023 0.30611,0.034 0.33282,0.051 0.32519,0.066 0.31728,0.081 0.30879,0.097 0.30016,0.1143 0.29127,0.1322 0.28192,0.1503 0.27246,0.1696 0.2446,0.1756 0.23569,0.1934 0.22679,0.2119 0.21745,0.2308 0.20784,0.2504 0.19795,0.2706 0.1879,0.2913 0.17758,0.3125 1.37826,0.2378 1.30939,0.2812 1.24676,0.3221 1.19077,0.3601 1.14129,0.3952 1.09815,0.4277 1.06155,0.4571 1.03142,0.4839 1.09237,0.5517 1.07271,0.5763 1.06139,0.5973 1.0583,0.6146 1.06352,0.6283 1.07709,0.6386 1.09873,0.645 1.12884,0.6479 0.98038,0.5456 1.01249,0.5433 1.04966,0.5382 1.09166,0.5315 1.1386,0.5225 1.19034,0.511 1.24733,0.4978 1.30911,0.4821 0.93867,0.299 1.03411,0.2696 1.12064,0.2396 1.19841,0.2089 1.26726,0.1777 1.32735,0.1457 1.37868,0.1131 1.42095,0.08 1.20024,0.041 1.21834,0.017 1.23121,-0.01 1.23926,-0.031 1.24224,-0.056 1.24039,-0.081 1.23347,-0.1059 1.22161,-0.1317 1.3334,-0.176 1.3059,-0.2087 1.2718,-0.2415 1.2306,-0.275 1.1829,-0.3089 1.1284,-0.3433 1.0669,-0.3782 0.9989,-0.4136 0.2737,0.6187 0.2817,0.6346 0.2891,0.6485 0.2961,0.6605 0.3023,0.6707 0.3082,0.6793 0.3133,0.6857 0.3181,0.6904 0.3073,0.661 0.3105,0.6619 0.3134,0.6613 0.3157,0.6592 0.3179,0.6555 0.3194,0.6501 0.3205,0.643 0.3209,0.6345 0.3606,0.7005 0.3601,0.6855 0.3588,0.6682 0.3572,0.6487 0.3547,0.6269 0.3515,0.6028 0.3478,0.5767 0.3433,0.5481 0.2384,0.3817 0.2136,0.3614 0.1896,0.3421 0.1662,0.324 0.1435,0.307 0.1214,0.2914 0.1001,0.2767 0.079,0.2634 0.086,0.3965 0.038,0.3699 -0.01,0.348 -0.051,0.3309 -0.091,0.3184 -0.1282,0.311 -0.1626,0.3082 -0.1944,0.31 -0.1705,0.2445 -0.1867,0.2509 -0.2013,0.2592 -0.2149,0.2699 -0.2269,0.2829 -0.2378,0.2978 -0.2475,0.3154 -0.2556,0.335 -0.2736,0.3521 -0.2915,0.3523 -0.3075,0.3528 -0.3218,0.3531 -0.3341,0.353 -0.3445,0.3533 -0.353,0.3527 -0.3598,0.3527 -0.3469,0.3354 -0.3496,0.335 -0.3507,0.3343 -0.3502,0.3334 -0.3479,0.3326 -0.3443,0.3316 -0.3389,0.3305 -0.3319,0.3293 -0.3697,0.3757 -0.3559,0.3738 -0.3396,0.3717 -0.3209,0.3696 -0.2999,0.3672 -0.2763,0.3646 -0.2502,0.3617 -0.2217,0.3587 -0.1658,0.2772 -0.1666,0.2622 -0.1676,0.2479 -0.1682,0.2347 -0.169,0.2224 -0.1692,0.2109 -0.1694,0.2006 -0.1696,0.191 -0.2093,0.2244 -0.209,0.2132 -0.2083,0.2039 -0.2071,0.1962 -0.2059,0.1904 -0.2043,0.1866 -0.2023,0.1846 -0.2001,0.184 -0.2009,0.1888 -0.1979,0.1921 -0.1949,0.1974 -0.1911,0.2045 -0.1874,0.2137 -0.1831,0.2248 -0.1787,0.2377 -0.1737,0.2526 -0.126,0.188 -0.1181,0.1703 -0.1103,0.1537 -0.1022,0.1385 -0.094,0.1249 -0.086,0.1127 -0.078,0.1019 -0.07,0.093 -0.1074,0.1516 -0.079,0.134 -0.05,0.1253 -0.021,0.1258 0.01,0.1354 0.038,0.1543 0.068,0.1822 0.098,0.2196 0.053,0.1105 0.058,0.1204 0.065,0.1309 0.07,0.1421 0.077,0.1542 0.082,0.167 0.088,0.1807 0.095,0.1951 0.1685,0.3372 0.1915,0.364 0.2112,0.3879 0.2285,0.4101 0.2424,0.4297 0.2537,0.4475 0.262,0.4626 0.2674,0.4759 0.2272,0.4093 0.2272,0.4157 0.2255,0.4205 0.2218,0.4244 0.2168,0.4267 0.2097,0.4278 0.2009,0.4276 0.1904,0.4259 0.2053,0.49 0.1862,0.4839 0.1642,0.4759 0.1395,0.4656 0.1123,0.4534 0.082,0.439 0.049,0.4226 0.014,0.404 v 0.3439 l -0.01,0.3381 -0.01,0.3327 -0.01,0.3272 -0.01,0.3222 v 0.317 0.3125 l -9e-4,0.3076 v 0.3406 l 0.01,0.3353 0.012,0.3302 0.018,0.3252 0.025,0.3209 0.033,0.3165 0.041,0.3124 0.051,0.3086 0.063,0.3142 0.075,0.3108 0.087,0.3076 0.1008,0.3047 0.1153,0.3021 0.1305,0.2997 0.1467,0.2976 0.1639,0.2959 0.1455,0.2403 0.146,0.2237 0.1468,0.2081 0.1477,0.193 0.1491,0.1784 0.1504,0.1648 0.1521,0.1516 0.1542,0.139 0.1959,0.1575 0.1998,0.1401 0.204,0.1243 0.2091,0.1095 0.2144,0.096 0.2203,0.084 0.2265,0.073 0.2334,0.064 0.2139,0.05 0.22,0.044 0.2265,0.04 0.2332,0.036 0.2405,0.033 0.2478,0.031 0.2558,0.03 0.2638,0.03 0.2682,0.022 0.2712,0.01 h 0.2742 l 0.2764,-0.014 0.2784,-0.023 0.2801,-0.032 0.2812,-0.039 0.2822,-0.045 0.2747,-0.049 0.275,-0.052 0.2747,-0.055 0.274,-0.056 0.2731,-0.057 0.2717,-0.056 0.2699,-0.054 0.2679,-0.052 0.2912,-0.052 0.2875,-0.046 0.2838,-0.038 0.2795,-0.03 0.2748,-0.019 0.2694,-0.01 0.2639,0.01 0.2574,0.021 0.2178,0.027 0.2087,0.03 0.2003,0.034 0.1924,0.037 0.1855,0.04 0.179,0.043 0.1732,0.046 0.1681,0.048 0.1925,0.06 0.1873,0.062 0.1834,0.065 0.1804,0.067 0.1786,0.069 0.1777,0.07 0.1782,0.072 0.1795,0.073 0.167,0.067 0.1699,0.068 0.1737,0.067 0.1783,0.068 0.1838,0.067 0.19,0.066 0.1971,0.065 0.205,0.064 0.011,-0.1365 0.01,-0.1331 v -0.1301 -0.1267 -0.124 l -0.01,-0.1212 -0.012,-0.1185 -0.016,-0.116 -0.023,-0.1261 -0.028,-0.1232 -0.033,-0.1207 -0.039,-0.1185 -0.044,-0.1164 -0.051,-0.1146 -0.057,-0.113 -0.063,-0.1116 -0.061,-0.099 -0.066,-0.098 -0.072,-0.098 -0.077,-0.097 -0.082,-0.097 -0.088,-0.096 -0.093,-0.096 -0.099,-0.096 0.1647,0.016 0.1612,0.014 0.1582,0.012 0.1555,0.01 0.1533,0.01 0.1511,0.01 h 0.1495 0.1482 0.1545 l 0.154,-3e-4 h 0.1537 0.1537 0.1541 l 0.1551,-0.01 0.1563,-0.01 0.158,-0.01 0.1462,-0.01 0.1483,-0.01 0.1506,-0.01 0.1531,-0.01 0.1559,-0.01 0.1594,-0.01 0.1627,-0.01 0.1667,-0.01 0.1827,-0.01 0.1852,-3e-4 0.1873,0.01 0.1892,0.012 0.1909,0.018 0.1924,0.023 0.1934,0.028 0.1945,0.033 0.1847,0.036 0.1853,0.04 0.1855,0.043 0.1852,0.046 0.1851,0.05 0.1846,0.053 0.1838,0.055 0.1828,0.057 0.1855,0.061 0.184,0.062 0.1822,0.064 0.1804,0.065 0.1785,0.067 0.1759,0.067 0.1734,0.068 0.1706,0.069 v -0.1009 -0.099 l -0.01,-0.097 -0.01,-0.096 -0.012,-0.094 -0.015,-0.093 -0.018,-0.091 -0.021,-0.09 -0.025,-0.093 -0.028,-0.091 -0.031,-0.09 -0.033,-0.089 -0.036,-0.088 -0.039,-0.088 -0.041,-0.087 -0.043,-0.086 -0.044,-0.083 -0.045,-0.082 -0.047,-0.082 -0.049,-0.082 -0.051,-0.082 -0.052,-0.082 -0.054,-0.082 -0.055,-0.082 0.1856,0.028 0.1913,0.028 0.1964,0.028 0.201,0.029 0.205,0.028 0.2085,0.029 0.211,0.029 0.2135,0.029 0.2034,0.028 0.2043,0.028 0.2047,0.028 0.2047,0.028 0.204,0.029 0.2031,0.029 0.2015,0.029 0.1992,0.03 0.2193,0.033 0.2154,0.034 0.2109,0.034 0.2055,0.035 0.1997,0.036 0.1928,0.036 0.1855,0.037 0.1775,0.038 0.1481,0.033 0.1437,0.035 0.1394,0.036 0.1356,0.037 0.132,0.038 0.1289,0.039 0.1259,0.039 0.1233,0.04 0.138,0.045 0.1355,0.045 0.1334,0.044 0.1318,0.044 0.1307,0.043 0.1299,0.041 0.1296,0.039 0.13,0.037 0.1299,0.035 0.1309,0.032 0.1327,0.03 0.1346,0.027 0.1371,0.023 0.1401,0.02 0.1434,0.016 0.1473,0.012 0.1398,0.01 0.1397,-6e-4 0.1397,-0.01 0.1394,-0.011 0.1393,-0.016 0.1391,-0.02 0.1386,-0.024 0.1383,-0.027 0.1382,-0.03 0.1378,-0.033 0.1371,-0.034 0.1364,-0.036 0.1358,-0.037 0.1347,-0.037 0.1341,-0.037 0.1329,-0.036 0.1423,-0.038 0.1411,-0.036 0.1396,-0.034 0.1383,-0.031 0.1366,-0.027 0.1348,-0.023 0.1332,-0.018 0.1315,-0.012 0.2879,-0.017 0.2828,-0.011 h 0.2784 0.274 l 0.27,0.01 0.2664,0.015 0.2631,0.021 0.2599,0.026 0.2744,0.034 0.2716,0.04 0.2692,0.046 0.2671,0.052 0.2654,0.057 0.2642,0.063 0.2632,0.068 0.2625,0.073 0.2557,0.075 0.2556,0.079 0.256,0.083 0.2571,0.088 0.258,0.091 0.2595,0.095 0.2612,0.098 0.2634,0.1014 0.06,-0.079 0.045,-0.083 0.032,-0.086 0.02,-0.089 0.01,-0.091 v -0.094 l -0.011,-0.095 -0.019,-0.096 -0.023,-0.09 -0.028,-0.09 -0.033,-0.09 -0.036,-0.089 -0.038,-0.088 -0.04,-0.087 -0.041,-0.086 -0.041,-0.084 -0.055,-0.1126 -0.05,-0.1076 -0.044,-0.1016 -0.035,-0.095 -0.024,-0.087 -0.011,-0.078 v -0.068 l 0.022,-0.058 0.04,-0.053 0.048,-0.042 0.055,-0.031 0.062,-0.023 0.07,-0.015 0.077,-0.01 h 0.084 l 0.091,-4e-4 h 0.063 0.066 0.069 0.072 0.075 l 0.079,6e-4 0.081,-6e-4 h 0.084 0.067 0.069 l 0.071,-0.01 0.072,-0.01 0.074,-0.01 0.076,-0.011 0.077,-0.013 0.079,-0.016 0.139,-0.023 0.159,-0.016 0.1768,-0.01 h 0.1927 l 0.2066,0.01 0.2182,0.013 0.2279,0.021 0.2354,0.028 0.1889,0.028 0.1913,0.032 0.1926,0.037 0.193,0.041 0.1922,0.046 0.1906,0.051 0.1881,0.056 0.1842,0.061 0.2035,0.075 0.1959,0.081 0.1871,0.088 0.1764,0.094 0.1648,0.1002 0.1514,0.1069 0.1366,0.1132 0.1203,0.1198 0.062,-0.2143 0.049,-0.2076 0.037,-0.2015 0.025,-0.1954 0.013,-0.1898 v -0.1844 l -0.01,-0.1791 -0.02,-0.1747 -0.036,-0.1925 -0.049,-0.1873 -0.062,-0.1823 -0.074,-0.1779 -0.086,-0.1736 -0.098,-0.17 -0.1093,-0.1667 -0.12,-0.1639 -0.1139,-0.1414 -0.1214,-0.1401 -0.129,-0.1387 -0.136,-0.138 -0.1428,-0.137 -0.1493,-0.1368 -0.1556,-0.1367 -0.1618,-0.1368 0.2101,0.026 0.2081,0.027 0.2062,0.028 0.2043,0.029 0.2027,0.031 0.2011,0.032 0.1995,0.035 0.1982,0.037 0.2022,0.041 0.201,0.043 0.1998,0.047 0.1988,0.05 0.1978,0.054 0.197,0.058 0.1962,0.062 0.1957,0.067 0.1871,0.069 0.1866,0.073 0.1863,0.079 0.1862,0.084 0.186,0.089 0.186,0.095 0.1861,0.1009 0.1862,0.1073 -0.113,-0.1849 -0.1037,-0.1758 -0.095,-0.1674 -0.088,-0.1598 -0.082,-0.153 -0.078,-0.1469 -0.074,-0.1415 -0.072,-0.137 -0.083,-0.1554 -0.084,-0.1516 -0.086,-0.1488 -0.09,-0.1475 -0.097,-0.1471 -0.1049,-0.1481 -0.1151,-0.1505 -0.127,-0.1537 -0.099,-0.1123 -0.1066,-0.1149 -0.1151,-0.1181 -0.1243,-0.1219 -0.134,-0.1259 -0.1446,-0.1306 -0.1558,-0.1356 -0.1679,-0.1411 -0.1029,-0.088 -0.1008,-0.089 -0.1005,-0.091 -0.1021,-0.092 -0.1056,-0.093 -0.1112,-0.093 -0.1183,-0.093 -0.1278,-0.093 -0.099,-0.067 -0.1052,-0.066 -0.1123,-0.065 -0.1202,-0.065 -0.1288,-0.064 -0.1383,-0.063 -0.1481,-0.062 -0.1589,-0.061 -0.1161,-0.041 -0.1216,-0.04 -0.1274,-0.04 -0.1336,-0.039 -0.14,-0.038 -0.1465,-0.037 -0.1532,-0.036 -0.1604,-0.035 -0.288,-0.071 -0.312,-0.093 -0.3334,-0.1156 -0.3517,-0.1366 -0.3669,-0.1569 -0.3793,-0.1761 -0.3885,-0.1947 -0.3951,-0.2123 -0.3221,-0.1837 -0.3226,-0.1941 -0.3218,-0.204 -0.3193,-0.2133 -0.3151,-0.2223 -0.3095,-0.2307 -0.3023,-0.2386 -0.2935,-0.246 -0.302,-0.2711 -0.2883,-0.2782 -0.2726,-0.2852 -0.2551,-0.2914 -0.2354,-0.297 -0.2139,-0.3021 -0.1906,-0.3066 -0.1653,-0.3104 -0.163,-0.335 -0.1728,-0.3562 -0.1811,-0.3752 -0.1885,-0.3922 -0.1947,-0.4071 -0.1995,-0.42 -0.2034,-0.4307 -0.2062,-0.4395 -0.1846,-0.3962 -0.1849,-0.3999 -0.1846,-0.4024 -0.1832,-0.4032 -0.1811,-0.4023 -0.1782,-0.4002 -0.1744,-0.3967 -0.1697,-0.3913 -0.2011,-0.4715 -0.1912,-0.4588 -0.18,-0.4436 -0.1672,-0.4253 -0.1529,-0.4044 -0.137,-0.3809 -0.1197,-0.3546 -0.1008,-0.3254 -0.054,-0.1857 -0.05,-0.1732 -0.047,-0.1615 -0.043,-0.1506 -0.04,-0.14 -0.037,-0.1306 -0.035,-0.1214 -0.032,-0.1131 -0.056,-0.1968 -0.049,-0.1725 -0.044,-0.153 -0.041,-0.1382 -0.039,-0.1282 -0.039,-0.123 -0.04,-0.1224 -0.043,-0.1266 -0.036,-0.1023 -0.04,-0.1097 -0.044,-0.1192 -0.049,-0.1306 -0.055,-0.1441 -0.062,-0.1599 -0.069,-0.1779 -0.077,-0.1979 0.6298,-0.2188 0.635,-0.2104 0.6392,-0.2037 0.6422,-0.199 0.6443,-0.1961 0.6453,-0.1951 0.6453,-0.1958 0.6441,-0.1986 0.6459,-0.204 0.6426,-0.2105 0.6381,-0.2188 0.6325,-0.229 0.6261,-0.2411 0.6183,-0.2551 0.6094,-0.2708 0.5995,-0.2884 0.5876,-0.3076 0.5756,-0.3289 0.5624,-0.3522 0.5482,-0.3775 0.5329,-0.4046 0.5163,-0.4335 0.4988,-0.4643 0.4803,-0.4969 0.4448,-0.4868 0.4239,-0.4674 0.4028,-0.4506 0.3816,-0.4366 0.3604,-0.4252 0.3394,-0.4164 0.3182,-0.4102 0.2969,-0.4066 0.3247,-0.4813 0.2946,-0.4847 0.2647,-0.4922 0.2348,-0.5044 0.2049,-0.5208 0.1748,-0.5417 0.1447,-0.5669 0.1147,-0.5966 0.067,-0.4808 0.05,-0.5027 0.032,-0.527 0.014,-0.5529 v -0.5811 l -0.021,-0.6111 -0.039,-0.6432 -0.057,-0.6773 -0.092,-0.8378 -0.1172,-0.8612 -0.1411,-0.8824 -0.1632,-0.9017 -0.1835,-0.9187 -0.2023,-0.9335 -0.2193,-0.9464 -0.2344,-0.9572 -0.2251,-0.8792 -0.2352,-0.8848 -0.2434,-0.8887 -0.2509,-0.8912 -0.2567,-0.892 -0.2614,-0.8913 -0.2647,-0.889 -0.2668,-0.8851 -0.2808,-0.9224 -0.2801,-0.9145 -0.2778,-0.9047 -0.2742,-0.8934 -0.2689,-0.8797 -0.2621,-0.8645 -0.254,-0.8476 -0.2441,-0.8285 0.5409,0.2089 0.5196,0.2078 0.4998,0.2078 0.481,0.2091 0.4635,0.2114 0.4472,0.2152 0.4322,0.2201 0.4182,0.226 0.4533,0.2616 0.4392,0.2724 0.4267,0.2849 0.416,0.2988 0.407,0.3149 0.3997,0.3321 0.3942,0.3512 0.3902,0.3722 0.3285,0.3321 0.328,0.3494 0.3286,0.3675 0.33,0.3865 0.3327,0.4067 0.3362,0.4278 0.3409,0.45 0.3465,0.4731 0.3979,0.5159 0.4239,0.482 0.4486,0.4488 0.4719,0.4164 0.4939,0.3846 0.5147,0.3534 0.5338,0.3232 0.5517,0.2935 0.5628,0.2623 0.5777,0.2346 0.5911,0.2076 0.6038,0.1814 0.6146,0.1559 0.6243,0.131 0.6327,0.107 0.64,0.083 0.6243,0.059 0.6288,0.038 0.6317,0.018 h 0.6337 l 0.6344,-0.02 0.634,-0.038 0.6323,-0.055 0.6296,-0.072 -0.021,0.4691 -0.021,0.4541 -0.021,0.4409 -0.021,0.4289 -0.02,0.4185 -0.019,0.4098 -0.017,0.4024 -0.015,0.3965 -0.014,0.4248 -0.011,0.4217 -0.01,0.4207 v 0.4212 0.4239 0.4286 l 0.01,0.4351 0.015,0.4434 0.017,0.3872 0.022,0.396 0.027,0.406 0.032,0.4172 0.037,0.4295 0.043,0.4432 0.048,0.4579 0.054,0.4739 0.058,0.5633 0.044,0.6053 0.031,0.6432 0.019,0.6766 0.01,0.706 v 0.7313 l -0.016,0.7522 -0.026,0.7693 -0.031,0.6756 -0.039,0.6826 -0.045,0.6865 -0.052,0.688 -0.059,0.6867 -0.065,0.6826 -0.071,0.6761 -0.076,0.6666 -0.098,0.7791 -0.1052,0.7574 -0.1117,0.7308 -0.1178,0.6998 -0.1233,0.6642 -0.1283,0.624 -0.1331,0.579 -0.1371,0.5298 -0.1093,0.3851 -0.1095,0.3679 -0.1094,0.352 -0.1087,0.3367 -0.1079,0.3229 -0.1066,0.3101 -0.1048,0.2982 -0.1026,0.2876 -0.1308,0.3631 -0.1254,0.3491 -0.1192,0.3378 -0.112,0.3287 -0.1039,0.3222 -0.095,0.3182 -0.085,0.3168 -0.074,0.3178 -0.061,0.3118 -0.049,0.3174 -0.036,0.3251 -0.022,0.3351 -0.01,0.3476 0.01,0.3621 0.024,0.379 0.041,0.3981 0.052,0.3673 0.065,0.3647 0.077,0.3619 0.087,0.3596 0.097,0.3569 0.1056,0.3544 0.1131,0.3521 0.1195,0.3495 0.1271,0.3535 0.1314,0.3511 0.1346,0.3486 0.1364,0.346 0.1373,0.3436 0.1368,0.3412 0.1354,0.3389 0.1324,0.3366 0.1392,0.3622 0.133,0.3596 0.1256,0.3568 0.1163,0.3545 0.1059,0.3518 0.094,0.3494 0.08,0.347 0.065,0.3447 0.046,0.2966 0.039,0.2937 0.033,0.2905 0.028,0.2877 0.024,0.2846 0.02,0.2816 0.017,0.2787 0.015,0.2755 0.016,0.2985 0.015,0.2947 0.016,0.2911 0.018,0.2876 0.021,0.2837 0.025,0.2803 0.03,0.2764 0.036,0.2728 0.046,0.286 0.055,0.282 0.066,0.2776 0.078,0.2736 0.091,0.2695 0.1052,0.2654 0.1209,0.2613 0.1377,0.2572 0.1298,0.2201 0.1328,0.2153 0.1356,0.2109 0.1382,0.2065 0.1407,0.2023 0.143,0.1984 0.1449,0.1944 0.1468,0.1904 0.1585,0.1997 0.16,0.1958 0.1613,0.1922 0.1625,0.1884 0.1633,0.1852 0.1637,0.1819 0.1642,0.179 0.1641,0.176 0.1763,0.1864 0.1758,0.1835 0.1747,0.181 0.1735,0.1785 0.1721,0.1765 0.1701,0.1745 0.1678,0.1726 0.1654,0.1713 0.1338,0.1339 0.1325,0.1227 0.1314,0.112 0.1305,0.1019 0.1297,0.092 0.1291,0.083 0.1284,0.075 0.1278,0.067 0.1566,0.072 0.1564,0.062 0.1564,0.052 0.1566,0.044 0.1571,0.036 0.1578,0.03 0.1587,0.024 0.1599,0.02 0.1569,0.015 0.1585,0.013 0.1602,0.011 0.1622,0.011 0.1643,0.011 0.1667,0.012 0.1693,0.014 0.1721,0.016 0.1452,0.016 0.1411,0.016 0.1369,0.016 0.1333,0.017 0.1295,0.018 0.1264,0.018 0.1232,0.019 0.1203,0.019 0.138,0.024 0.1347,0.026 0.1318,0.027 0.1291,0.029 0.1268,0.03 0.125,0.032 0.1234,0.034 0.1223,0.036 0.123,0.038 0.1225,0.041 0.1224,0.043 0.1228,0.045 0.1232,0.048 0.1245,0.051 0.1258,0.054 0.1277,0.057 0.077,0.025 0.064,6e-4 0.053,-0.022 0.042,-0.041 0.033,-0.059 0.025,-0.074 0.019,-0.086 0.013,-0.096 0.01,-0.069 v -0.072 -0.074 -0.075 -0.076 -0.076 -0.075 -0.073 l 0.01,-0.1042 0.01,-0.097 0.013,-0.087 0.019,-0.075 0.026,-0.061 0.034,-0.044 0.042,-0.025 h 0.053 l 0.1011,0.016 0.1039,0.022 0.1067,0.027 0.1096,0.031 0.1123,0.035 0.1149,0.037 0.1177,0.04 0.1203,0.041 0.1042,0.035 0.1062,0.035 0.108,0.035 0.1097,0.034 0.1117,0.032 0.1133,0.031 0.1152,0.028 0.1168,0.026 0.1098,0.021 0.1114,0.018 0.1127,0.014 0.1143,0.01 0.1155,0.01 h 0.1171 0.1183 l 0.1196,-0.01 0.141,-0.012 0.1449,-0.01 0.1486,-0.01 h 0.1517 0.1541 0.1563 l 0.1576,0.01 0.1586,0.01 0.1513,0.014 0.1512,0.018 0.1508,0.023 0.15,0.028 0.1486,0.033 0.1471,0.039 0.1449,0.045 0.1422,0.051 0.1399,0.057 0.1363,0.064 0.1325,0.072 0.1279,0.079 0.1233,0.087 0.1181,0.095 0.1124,0.1039 0.1061,0.1128 0.024,-0.1238 0.022,-0.1228 0.02,-0.1217 0.017,-0.1209 0.015,-0.12 0.012,-0.119 0.01,-0.1183 0.01,-0.1176 v -0.1225 l 8e-4,-0.122 v -0.1212 l -0.01,-0.1209 -0.01,-0.1202 -0.014,-0.1202 -0.018,-0.1198 -0.022,-0.1197 -0.024,-0.1148 -0.028,-0.1149 -0.032,-0.1148 -0.036,-0.1149 -0.04,-0.1151 -0.044,-0.1153 -0.049,-0.1155 -0.053,-0.1159 0.1019,0.089 0.1082,0.085 0.1137,0.081 0.1186,0.078 0.1234,0.074 0.1273,0.071 0.1309,0.068 0.1339,0.064 0.1302,0.059 0.1319,0.056 0.1335,0.054 0.1343,0.052 0.1347,0.05 0.1349,0.048 0.1343,0.046 0.1335,0.044 0.1482,0.048 0.1459,0.047 0.1429,0.045 0.1393,0.044 0.135,0.043 0.1303,0.042 0.1245,0.041 0.1185,0.04 0.075,0.025 0.071,0.021 0.067,0.016 0.063,0.012 0.06,0.01 0.056,0.01 h 0.053 0.05 l 0.073,-0.01 0.067,-0.014 0.062,-0.019 0.058,-0.024 0.054,-0.028 0.051,-0.031 0.049,-0.033 0.047,-0.034 0.049,-0.037 0.049,-0.037 0.05,-0.035 0.052,-0.033 0.054,-0.03 0.057,-0.026 0.062,-0.021 0.067,-0.015 0.164,-0.021 0.1643,-0.01 0.1646,6e-4 0.1646,0.011 0.1644,0.02 0.1641,0.029 0.1636,0.037 0.1629,0.045 0.1552,0.05 0.1546,0.056 0.1533,0.062 0.1519,0.068 0.1506,0.072 0.149,0.077 0.1472,0.081 0.1454,0.084 0.1459,0.088 0.1435,0.091 0.1411,0.093 0.1384,0.095 0.1356,0.096 0.1326,0.097 0.1295,0.097 0.1263,0.097 v -0.2557 l -0.021,-0.2468 -0.035,-0.2381 -0.049,-0.23 -0.062,-0.2222 -0.074,-0.2147 -0.086,-0.2079 -0.096,-0.2015 -0.1127,-0.2069 -0.1227,-0.2005 -0.1316,-0.1947 -0.1396,-0.1893 -0.1466,-0.1845 -0.1527,-0.1801 -0.1576,-0.1765 -0.1618,-0.173 -0.1661,-0.1716 -0.1681,-0.1692 -0.1693,-0.1674 -0.1692,-0.1662 -0.1684,-0.1655 -0.1663,-0.1651 -0.1634,-0.1655 -0.1595,-0.1661 -0.1226,-0.1336 -0.1049,-0.1208 -0.089,-0.109 -0.074,-0.098 -0.061,-0.088 -0.05,-0.08 -0.04,-0.072 -0.032,-0.064 -0.042,-0.1032 -0.03,-0.089 -0.027,-0.08 -0.035,-0.078 -0.052,-0.081 -0.079,-0.09 -0.1158,-0.1052 -0.1625,-0.1262 -0.071,-0.051 -0.078,-0.054 -0.086,-0.058 -0.095,-0.062 -0.1036,-0.067 -0.1128,-0.072 -0.1227,-0.077 -0.1328,-0.082 -0.2736,-0.1752 -0.286,-0.1977 -0.2965,-0.2193 -0.3048,-0.2393 -0.3114,-0.2579 -0.316,-0.2752 -0.3185,-0.2913 -0.3191,-0.3057 -0.2708,-0.2712 -0.2686,-0.28 -0.2653,-0.2878 -0.2607,-0.2952 -0.2549,-0.3014 -0.2479,-0.3069 -0.2398,-0.3117 -0.2304,-0.3155 -0.2369,-0.344 -0.2231,-0.3466 -0.2078,-0.348 -0.1909,-0.3485 -0.1726,-0.348 -0.1527,-0.3464 -0.1314,-0.3439 -0.1084,-0.3402 -0.096,-0.336 -0.096,-0.335 -0.097,-0.3339 -0.097,-0.3326 -0.098,-0.3314 -0.099,-0.3302 -0.1005,-0.329 -0.1021,-0.3275 -0.1055,-0.3309 -0.1077,-0.3297 -0.1102,-0.3284 -0.1128,-0.3269 -0.1158,-0.3256 -0.1192,-0.3241 -0.1226,-0.3227 -0.1264,-0.321 -0.1299,-0.3187 -0.1345,-0.317 -0.1388,-0.3155 -0.1437,-0.314 -0.1488,-0.3124 -0.1542,-0.3107 -0.1596,-0.3092 -0.1655,-0.3076 0.1365,-0.5735 0.1319,-0.5673 0.1274,-0.5617 0.1233,-0.5567 0.1191,-0.5527 0.1153,-0.549 0.1116,-0.5463 0.1083,-0.5442 0.1079,-0.5577 0.1046,-0.5567 0.1018,-0.5568 0.099,-0.5576 0.097,-0.5592 0.095,-0.5616 0.092,-0.5645 0.091,-0.5685 0.084,-0.5423 0.083,-0.5471 0.082,-0.5524 0.082,-0.5586 0.081,-0.5651 0.081,-0.5726 0.081,-0.5804 0.081,-0.5893 0.037,-0.2679 0.038,-0.2595 0.039,-0.252 0.041,-0.2457 0.044,-0.2406 0.047,-0.2366 0.052,-0.2336 0.057,-0.232 0.061,-0.225 0.067,-0.2253 0.073,-0.2269 0.081,-0.2292 0.089,-0.2328 0.098,-0.2374 0.1079,-0.2431 0.1181,-0.2496 0.098,-0.1968 0.1047,-0.2017 0.1119,-0.2073 0.1193,-0.213 0.127,-0.2195 0.135,-0.2265 0.1434,-0.2337 0.1519,-0.2417 0.2065,-0.3366 0.2094,-0.3654 0.2112,-0.3924 0.2118,-0.4165 0.2111,-0.4388 0.2094,-0.4585 0.2064,-0.4759 0.2023,-0.491 0.1689,-0.4298 0.164,-0.4379 0.1587,-0.4444 0.1527,-0.4497 0.146,-0.4533 0.1384,-0.4555 0.1301,-0.4563 0.1211,-0.4557 0.1203,-0.4924 0.1079,-0.4881 0.095,-0.4821 0.081,-0.4743 0.065,-0.4646 0.049,-0.4532 0.032,-0.4397 0.014,-0.4248 0.3791,0.045 0.3803,0.047 0.3816,0.049 0.3828,0.051 0.3835,0.053 0.3845,0.054 0.3853,0.055 0.3857,0.056 0.3826,0.056 0.383,0.056 0.3832,0.057 0.3831,0.056 0.383,0.056 0.3828,0.055 0.3824,0.054 0.3821,0.053 0.3874,0.053 0.3865,0.051 0.3857,0.049 0.3847,0.047 0.3836,0.044 0.3822,0.041 0.3808,0.038 0.3792,0.035 0.3776,0.038 0.3925,0.051 0.4052,0.062 0.4165,0.073 0.4262,0.083 0.4339,0.092 0.4403,0.1001 0.4445,0.1076 0.4134,0.105 0.4144,0.11 0.4143,0.1143 0.4126,0.1179 0.4099,0.1209 0.4056,0.1232 0.4003,0.1248 0.3933,0.1261 0.4662,0.1528 0.4517,0.1522 0.4352,0.1506 0.4161,0.1476 0.3946,0.1435 0.371,0.1382 0.3449,0.1317 0.3162,0.1241 0.1785,0.071 0.1664,0.066 0.1548,0.061 0.1441,0.057 0.1339,0.053 0.1244,0.049 0.1157,0.045 0.1074,0.042 0.1912,0.074 0.1667,0.064 0.1476,0.056 0.1332,0.049 0.1242,0.045 0.1202,0.043 0.1215,0.042 0.1275,0.044 0.1005,0.034 0.1085,0.037 0.1186,0.041 0.1308,0.045 0.1449,0.05 0.1612,0.056 0.1791,0.063 0.1995,0.07 0.084,0.262 0.088,0.2613 0.091,0.2607 0.095,0.2605 0.097,0.2602 0.1,0.26 0.1014,0.2598 0.1025,0.2598 0.1025,0.2577 0.1028,0.2576 0.1027,0.2581 0.102,0.2583 0.1011,0.2588 0.1,0.2594 0.098,0.2602 0.095,0.2609 0.092,0.2623 0.089,0.2631 0.085,0.2643 0.081,0.2652 0.076,0.2666 0.071,0.2679 0.066,0.2694 0.059,0.2709 0.052,0.2697 0.043,0.2609 0.035,0.253 0.028,0.2458 0.022,0.24 0.016,0.2347 0.011,0.2308 0.01,0.2276 v 0.2429 0.2417 l -7e-4,0.2417 v 0.2427 0.2449 l -7e-4,0.2486 v 0.2534 0.2592 l 0.01,0.2213 0.01,0.2272 0.014,0.2333 0.019,0.2403 0.024,0.2482 0.029,0.2566 0.035,0.2657 0.042,0.2757 0.054,0.336 0.054,0.3563 0.054,0.3749 0.054,0.3914 0.052,0.406 0.05,0.4188 0.047,0.4294 0.043,0.4385 0.034,0.3923 0.03,0.3963 0.025,0.3991 0.02,0.4006 0.014,0.4006 0.01,0.3997 10e-4,0.3972 -0.01,0.3935 -0.017,0.4327 -0.027,0.4246 -0.038,0.4146 -0.05,0.4028 -0.063,0.389 -0.076,0.3738 -0.091,0.3565 -0.1058,0.3374 -0.098,0.2727 -0.099,0.254 -0.098,0.2369 -0.097,0.2213 -0.095,0.2074 -0.093,0.1949 -0.09,0.1843 -0.086,0.175 -0.1131,0.2325 -0.1031,0.2218 -0.091,0.2154 -0.078,0.2132 -0.063,0.2156 -0.046,0.222 -0.027,0.2329 -0.01,0.2482 0.01,0.1833 0.019,0.1939 0.031,0.2064 0.043,0.2202 0.056,0.2352 0.069,0.2519 0.083,0.2697 0.097,0.2893 0.1352,0.3646 0.1506,0.3676 0.1644,0.3703 0.1769,0.373 0.188,0.3755 0.1978,0.3779 0.2061,0.3803 0.213,0.3824 0.2021,0.3549 0.2055,0.3568 0.2083,0.3581 0.2097,0.3596 0.2102,0.3611 0.2094,0.3622 0.2079,0.3635 0.205,0.3648 0.2043,0.3718 0.1991,0.3727 0.1928,0.3736 0.1855,0.3742 0.1768,0.3749 0.1671,0.3756 0.1562,0.3757 0.1442,0.3763 0.1376,0.39 0.1333,0.4015 0.1304,0.4114 0.1288,0.4192 0.1285,0.4257 0.1297,0.4302 0.132,0.4331 0.136,0.4346 0.1377,0.423 0.1438,0.421 0.1512,0.4173 0.1599,0.4121 0.1699,0.4053 0.1813,0.3967 0.1936,0.3866 0.2075,0.3751 0.2326,0.3772 0.2504,0.361 0.2696,0.343 0.2903,0.323 0.3125,0.3014 0.3358,0.278 0.3609,0.2527 0.3873,0.2255 0.3956,0.1913 0.4137,0.1684 0.4301,0.1471 0.4445,0.1271 0.4571,0.1083 0.4682,0.091 0.4773,0.075 0.4845,0.06 0.4636,0.045 0.4672,0.034 0.469,0.024 0.4694,0.016 0.4682,0.01 h 0.4658 0.4615 l 0.4558,-0.01 0.5255,-0.011 0.5133,-0.013 0.4982,-0.013 0.481,-0.011 0.4612,-0.01 h 0.4391 l 0.4145,0.01 0.3874,0.015 0.2593,0.013 0.2435,0.011 0.2283,0.01 0.2145,0.01 0.2013,0.01 0.1895,0.01 h 0.1786 0.1685 0.2463 0.2282 l 0.2141,-2e-4 h 0.2036 0.1969 0.1941 0.1953 l 0.2002,-7e-4 0.1688,4e-4 h 0.1765 0.1863 0.1984 l 0.2122,0.01 0.2282,0.01 0.2465,0.01 0.2663,0.012 -0.071,-0.082 -0.07,-0.08 -0.069,-0.078 -0.068,-0.077 -0.068,-0.075 -0.068,-0.073 -0.067,-0.072 -0.067,-0.071 -0.072,-0.075 -0.073,-0.073 -0.073,-0.072 -0.074,-0.07 -0.074,-0.069 -0.075,-0.068 -0.077,-0.066 -0.078,-0.065 -0.077,-0.063 -0.078,-0.062 -0.08,-0.061 -0.082,-0.06 -0.084,-0.059 -0.086,-0.059 -0.088,-0.058 -0.09,-0.057 0.1687,-0.015 0.1681,-0.014 0.1674,-0.013 0.167,-0.011 0.1663,-0.01 0.1657,-0.01 0.1651,-0.01 h 0.1647 l 0.1684,-7e-4 h 0.1677 l 0.1671,0.01 0.1667,0.01 0.1659,0.012 0.1654,0.015 0.1649,0.019 0.1641,0.022 0.163,0.027 0.1625,0.031 0.1619,0.035 0.1613,0.04 0.1608,0.044 0.16,0.049 0.1596,0.054 0.1591,0.06 0.022,-0.066 0.01,-0.065 v -0.065 l -0.012,-0.064 -0.021,-0.064 -0.029,-0.063 -0.036,-0.063 -0.042,-0.062 -0.04,-0.054 -0.043,-0.053 -0.045,-0.053 -0.047,-0.052 -0.048,-0.051 -0.048,-0.051 -0.047,-0.05 -0.046,-0.049 -0.059,-0.066 -0.054,-0.064 -0.046,-0.062 -0.037,-0.06 -0.026,-0.058 -0.013,-0.056 v -0.053 l 0.019,-0.051 0.048,-0.072 0.06,-0.066 0.071,-0.061 0.081,-0.057 0.09,-0.052 0.098,-0.047 0.1048,-0.042 0.1107,-0.037 0.094,-0.026 0.097,-0.024 0.099,-0.02 0.1008,-0.017 0.1019,-0.014 0.1027,-0.011 0.1026,-0.01 h 0.1024 0.1113 0.1094 l 0.1069,0.01 0.1036,0.01 0.1,0.014 0.095,0.017 0.09,0.021 0.084,0.025 -0.055,-0.1367 -0.058,-0.1328 -0.061,-0.1289 -0.064,-0.1252 -0.067,-0.1216 -0.07,-0.1177 -0.073,-0.1144 -0.076,-0.1108 -0.084,-0.1132 -0.087,-0.1097 -0.091,-0.106 -0.095,-0.1028 -0.098,-0.099 -0.1019,-0.096 -0.1055,-0.093 -0.1091,-0.09 -0.1071,-0.082 -0.1104,-0.08 -0.1138,-0.077 -0.1172,-0.075 -0.1206,-0.072 -0.1242,-0.07 -0.1274,-0.068 -0.131,-0.066 -0.1278,-0.332 -0.1286,-0.3105 -0.13,-0.2897 -0.1322,-0.27 -0.1355,-0.2511 -0.1395,-0.2331 -0.1444,-0.216 -0.1502,-0.1998 -0.1937,-0.2241 -0.2052,-0.2025 -0.2185,-0.1821 -0.2331,-0.1636 -0.2494,-0.1464 -0.2674,-0.131 -0.2869,-0.1172 -0.3079,-0.1047 -0.2417,-0.071 -0.2546,-0.065 -0.2682,-0.061 -0.2827,-0.057 -0.2974,-0.053 -0.3131,-0.051 -0.3291,-0.049 -0.346,-0.048 -0.067,0.01 -0.071,0.024 -0.076,0.029 -0.082,0.019 -0.089,-0.01 -0.096,-0.043 -0.1048,-0.096 -0.1143,-0.1623 -0.038,-0.066 -0.039,-0.074 -0.04,-0.083 -0.041,-0.092 -0.042,-0.1017 -0.043,-0.1119 -0.044,-0.1222 -0.045,-0.133 -0.028,-0.086 -0.029,-0.09 -0.029,-0.095 -0.03,-0.099 -0.03,-0.1037 -0.031,-0.1085 -0.031,-0.1132 -0.032,-0.118 -0.1127,-0.3972 -0.1448,-0.4634 -0.1746,-0.5223 -0.2026,-0.5748 -0.2285,-0.6205 -0.2525,-0.6595 -0.2743,-0.6916 -0.2941,-0.7171 -0.2337,-0.554 -0.2432,-0.5617 -0.2515,-0.5668 -0.2591,-0.5687 -0.2658,-0.568 -0.2716,-0.5641 -0.2765,-0.5574 -0.2807,-0.5479 -0.3334,-0.6271 -0.3362,-0.6052 -0.3381,-0.5788 -0.3382,-0.5477 -0.3369,-0.5117 -0.3344,-0.4713 -0.3303,-0.4262 -0.3249,-0.3762 -0.049,-0.395 -0.045,-0.3913 -0.041,-0.3882 -0.037,-0.3852 -0.033,-0.3826 -0.029,-0.38 -0.026,-0.3778 -0.022,-0.3758 -0.019,-0.3892 -0.015,-0.3876 -0.011,-0.3861 -0.01,-0.3853 v -0.3844 -0.3838 -0.3837 l 0.01,-0.3839 0.01,-0.3813 0.014,-0.382 0.017,-0.3828 0.02,-0.3841 0.023,-0.3856 0.026,-0.3872 0.029,-0.3892 0.032,-0.3915 0.037,-0.389 0.045,-0.392 0.053,-0.3948 0.06,-0.3966 0.067,-0.3986 0.073,-0.3997 0.08,-0.4007 0.085,-0.4009 0.089,-0.3934 0.093,-0.3929 0.098,-0.3922 0.1014,-0.3909 0.1049,-0.3892 0.1079,-0.3873 0.1107,-0.3849 0.1131,-0.3821 0.1212,-0.3995 0.123,-0.3954 0.1241,-0.3911 0.125,-0.3861 0.1253,-0.3804 0.1253,-0.3747 0.1245,-0.3681 0.1236,-0.3613 0.1091,-0.3267 0.1001,-0.3199 0.092,-0.3136 0.084,-0.3078 0.076,-0.3026 0.069,-0.2981 0.062,-0.294 0.056,-0.2904 0.055,-0.3186 0.049,-0.3159 0.043,-0.3141 0.038,-0.313 0.033,-0.3126 0.029,-0.3131 0.026,-0.3144 0.023,-0.3165 0.02,-0.3012 0.018,-0.3044 0.018,-0.3083 0.017,-0.3128 0.018,-0.3182 0.018,-0.324 0.02,-0.3306 0.022,-0.338 0.8356,-0.1588 0.8075,-0.2064 0.78,-0.252 0.7539,-0.295 0.7286,-0.3363 0.7043,-0.375 0.6809,-0.4118 0.6587,-0.4463 0.6398,-0.4802 0.6193,-0.5105 0.5997,-0.5386 0.5811,-0.5643 0.5638,-0.5877 0.5471,-0.609 0.5316,-0.6281 0.5171,-0.6447 0.4926,-0.645 0.4806,-0.6567 0.4694,-0.6663 0.4593,-0.674 0.4501,-0.6793 0.4417,-0.6827 0.4343,-0.6841 0.4279,-0.6832 0.1491,-0.2476 0.1421,-0.2527 0.1352,-0.2574 0.1284,-0.2619 0.1214,-0.2658 0.1148,-0.2696 0.1081,-0.2733 0.1015,-0.2766 0.093,-0.2751 0.087,-0.2777 0.081,-0.2802 0.075,-0.2822 0.069,-0.2842 0.063,-0.2856 0.057,-0.2871 0.051,-0.2881 0.045,-0.2905 0.04,-0.2911 0.034,-0.2913 0.028,-0.2912 0.023,-0.2909 0.017,-0.2904 0.012,-0.2896 0.01,-0.2884 0.2328,-0.344 0.2189,-0.3454 0.2054,-0.3468 0.1923,-0.3484 0.1799,-0.3499 0.1675,-0.3518 0.1561,-0.3536 0.1449,-0.3558 0.1397,-0.3724 0.1286,-0.3749 0.118,-0.3777 0.1082,-0.3805 0.099,-0.3835 0.09,-0.3866 0.082,-0.3899 0.074,-0.3932 0.064,-0.3814 0.058,-0.385 0.052,-0.3885 0.047,-0.3921 0.043,-0.3962 0.038,-0.4 0.034,-0.4043 0.031,-0.4086 0.1812,-0.1496 0.1652,-0.154 0.1498,-0.1583 0.1356,-0.1623 0.1223,-0.1662 0.1097,-0.17 0.098,-0.1733 0.088,-0.177 0.083,-0.1925 0.073,-0.196 0.064,-0.1994 0.056,-0.2026 0.049,-0.2054 0.044,-0.2082 0.039,-0.2109 0.036,-0.2131 0.032,-0.2039 0.031,-0.2058 0.031,-0.2074 0.032,-0.2088 0.034,-0.2102 0.037,-0.2112 0.041,-0.212 0.045,-0.2129 0.041,-0.2161 0.028,-0.2188 0.016,-0.221 0.01,-0.2229 V 231.41 l -0.011,-0.2258 -0.017,-0.2269 -0.023,-0.2277 -0.026,-0.2243 -0.028,-0.2245 -0.029,-0.2244 -0.029,-0.2239 -0.028,-0.2235 -0.025,-0.2225 -0.021,-0.2212 -0.016,-0.2198 -0.01,-0.2297 -7e-4,-0.2275 0.01,-0.2249 0.021,-0.2221 0.035,-0.2188 0.049,-0.2153 0.066,-0.2113 0.083,-0.2072 0.092,-0.2186 0.079,-0.2179 0.067,-0.2174 0.056,-0.2171 0.045,-0.2166 0.036,-0.2164 0.028,-0.2163 0.02,-0.2161 0.014,-0.2238 0.01,-0.2237 v -0.2238 -0.224 -0.224 l -0.01,-0.2245 -0.01,-0.2246 -0.01,-0.225 -0.01,-0.2222 v -0.2226 -0.2232 -0.2239 l 0.01,-0.2245 0.012,-0.2251 0.019,-0.2261 0.027,-0.2269 0.035,-0.2978 0.024,-0.2947 0.013,-0.2921 v -0.2896 l -0.01,-0.2869 -0.012,-0.2849 -0.019,-0.2828 -0.025,-0.2809 -0.03,-0.2907 -0.034,-0.2892 -0.037,-0.288 -0.039,-0.2869 -0.04,-0.2861 -0.039,-0.2855 -0.038,-0.285 -0.036,-0.285 -0.032,-0.286 -0.027,-0.2864 -0.022,-0.2868 -0.015,-0.2875 -0.01,-0.2886 v -0.2896 l 0.012,-0.291 0.024,-0.2926 0.02,-0.2817 v -0.2778 l -0.012,-0.274 -0.027,-0.2705 -0.04,-0.2669 -0.052,-0.2636 -0.063,-0.2602 -0.073,-0.2569 -0.085,-0.2619 -0.093,-0.2587 -0.1,-0.2557 -0.1053,-0.2528 -0.1097,-0.25 -0.1128,-0.2473 -0.1147,-0.2448 -0.1154,-0.2424 -0.1238,-0.2589 -0.1218,-0.2562 -0.1179,-0.2539 -0.1125,-0.2515 -0.1058,-0.2493 -0.097,-0.2474 -0.087,-0.2455 -0.076,-0.2438 -0.092,-0.3279 -0.089,-0.3265 -0.086,-0.3251 -0.083,-0.3236 -0.081,-0.3221 -0.079,-0.3205 -0.078,-0.3186 -0.077,-0.3169 -0.08,-0.3305 -0.079,-0.3284 -0.079,-0.3262 -0.08,-0.3238 -0.081,-0.3213 -0.082,-0.3189 -0.084,-0.3164 -0.087,-0.3137 -0.094,-0.3258 -0.097,-0.3226 -0.1017,-0.3193 -0.106,-0.3158 -0.1113,-0.3124 -0.1169,-0.3087 -0.123,-0.305 -0.1297,-0.3011 -0.11,-0.2514 -0.1019,-0.2403 -0.095,-0.2296 -0.088,-0.22 -0.083,-0.2106 -0.079,-0.2022 -0.075,-0.1943 -0.073,-0.1871 -0.092,-0.2309 -0.091,-0.2215 -0.093,-0.2136 -0.097,-0.207 -0.1029,-0.202 -0.1112,-0.1982 -0.1209,-0.1959 -0.1331,-0.1951 -0.1184,-0.1586 -0.1288,-0.1595 -0.1402,-0.1615 -0.1529,-0.1642 -0.1665,-0.1675 -0.1814,-0.1717 -0.1973,-0.1764 -0.2142,-0.1822 0.019,-0.2183 v -0.2286 l -0.023,-0.2374 -0.041,-0.2451 -0.058,-0.2513 -0.074,-0.2561 -0.089,-0.2597 -0.1011,-0.2619 -0.098,-0.2297 -0.1053,-0.2295 -0.1118,-0.2284 -0.1177,-0.2266 -0.1221,-0.2236 -0.1259,-0.2201 -0.1285,-0.2153 -0.1302,-0.2099 -0.1676,-0.259 -0.1664,-0.2467 -0.1634,-0.2323 -0.1584,-0.2163 -0.1513,-0.1982 -0.1418,-0.1784 -0.1305,-0.1567 -0.117,-0.1332 -0.027,-0.03 -0.026,-0.029 -0.025,-0.027 -0.024,-0.026 -0.023,-0.025 -0.022,-0.024 -0.021,-0.023 -0.02,-0.022 -0.033,-0.036 -0.03,-0.033 -0.028,-0.029 -0.025,-0.027 -0.022,-0.024 -8e-4,-7e-4 0.025,-0.2219 0.017,-0.2445 0.01,-0.2397 -0.01,-0.2351 -0.014,-0.2309 -0.024,-0.2269 -0.033,-0.2235 -0.041,-0.22 -0.052,-0.2296 -0.06,-0.2266 -0.067,-0.224 -0.074,-0.222 -0.08,-0.2203 -0.085,-0.2188 -0.09,-0.2178 -0.094,-0.2171 -0.095,-0.2101 -0.098,-0.2102 -0.1,-0.2106 -0.1012,-0.2113 -0.1022,-0.2125 -0.1027,-0.214 -0.1023,-0.2157 -0.1017,-0.2178 -0.061,-0.156 -0.042,-0.1586 -0.024,-0.1605 -0.01,-0.1619 0.01,-0.1625 0.024,-0.1625 0.038,-0.1619 0.052,-0.1606 0.06,-0.1487 0.07,-0.1465 0.079,-0.1437 0.088,-0.1406 0.095,-0.1367 0.1024,-0.1324 0.1084,-0.1276 0.1138,-0.1223 0.1262,-0.1233 0.1303,-0.1161 0.1339,-0.1081 0.1362,-0.1 0.1377,-0.09 0.1383,-0.081 0.1378,-0.07 0.1366,-0.059 0.2627,-0.099 0.2638,-0.092 0.2648,-0.085 0.2658,-0.078 0.2669,-0.072 0.2677,-0.066 0.2685,-0.06 0.2695,-0.055 0.2728,-0.05 0.2735,-0.046 0.2741,-0.041 0.2745,-0.038 0.2752,-0.034 0.2752,-0.031 0.2758,-0.028 0.2759,-0.025 0.2766,-0.023 0.2768,-0.021 0.2769,-0.02 0.2767,-0.019 0.2767,-0.018 0.2764,-0.017 0.2763,-0.017 0.2759,-0.018 0.2626,-0.014 0.2565,-0.01 0.2507,-9e-4 0.2453,0.01 0.2403,0.013 0.2354,0.019 0.2312,0.026 0.2272,0.033 0.2432,0.043 0.2394,0.051 0.2358,0.059 0.2327,0.068 0.2302,0.076 0.2278,0.084 0.2261,0.092 0.2248,0.1007 0.2075,0.1006 0.2073,0.1079 0.207,0.1152 0.2074,0.1225 0.208,0.1299 0.209,0.1372 0.2102,0.1446 0.212,0.152 -0.1023,0.2093 -0.099,0.2094 -0.096,0.2096 -0.093,0.21 -0.09,0.2103 -0.087,0.2106 -0.084,0.2112 -0.081,0.2118 -0.08,0.2154 -0.077,0.216 -0.074,0.2167 -0.071,0.2175 -0.069,0.2185 -0.066,0.2193 -0.063,0.2203 -0.061,0.2214 -0.057,0.2195 -0.055,0.2207 -0.053,0.2219 -0.05,0.2232 -0.048,0.2246 -0.045,0.2258 -0.043,0.2273 -0.041,0.2287 0.052,-0.1222 0.054,-0.1192 0.056,-0.1163 0.058,-0.1137 0.06,-0.1106 0.062,-0.1083 0.064,-0.1056 0.066,-0.1031 0.072,-0.1054 0.074,-0.1028 0.077,-0.1006 0.08,-0.098 0.082,-0.096 0.085,-0.094 0.088,-0.092 0.091,-0.09 0.089,-0.085 0.092,-0.083 0.095,-0.082 0.097,-0.081 0.1001,-0.079 0.103,-0.078 0.1057,-0.077 0.1088,-0.076 -0.033,0.1339 -0.029,0.133 -0.026,0.1325 -0.022,0.132 -0.019,0.1316 -0.016,0.1311 -0.012,0.1309 -0.01,0.1306 -0.01,0.1337 v 0.1335 l -10e-4,0.1334 v 0.1333 0.1334 l 0.01,0.1335 0.01,0.1337 0.011,0.134 0.012,0.1308 0.014,0.1313 0.016,0.1316 0.017,0.1321 0.019,0.1329 0.02,0.1332 0.021,0.134 0.023,0.1348 0.034,-0.1547 0.035,-0.152 0.037,-0.1493 0.04,-0.1465 0.042,-0.144 0.044,-0.1414 0.047,-0.1391 0.05,-0.1365 0.056,-0.1419 0.059,-0.1392 0.063,-0.1368 0.067,-0.1345 0.071,-0.1321 0.076,-0.1299 0.08,-0.1278 0.085,-0.1256 0.085,-0.1172 0.089,-0.1153 0.094,-0.1135 0.099,-0.1119 0.1039,-0.1104 0.1091,-0.1089 0.1145,-0.1073 0.1199,-0.1059 0.2089,0.1999 0.2044,0.1885 0.2005,0.1779 0.1974,0.168 0.195,0.1588 0.1931,0.1503 0.1919,0.1426 0.1914,0.1354 0.2144,0.1441 0.2154,0.1371 0.2173,0.1311 0.2203,0.126 0.2241,0.1221 0.2288,0.1188 0.2344,0.1169 0.2409,0.1158 0.2111,0.098 0.2171,0.099 0.2236,0.1001 0.2306,0.1018 0.2384,0.1042 0.2467,0.1071 0.2554,0.1107 0.2648,0.1149 0.289,0.1293 0.2669,0.1275 0.2466,0.1266 0.2279,0.1271 0.2107,0.1285 0.1953,0.1311 0.1815,0.1347 0.1693,0.1396 0.1767,0.1633 0.1661,0.1724 0.1577,0.1827 0.1514,0.1949 0.1475,0.2085 0.146,0.2239 0.1468,0.2406 0.1496,0.2592 0.1063,0.1901 0.1096,0.2003 0.1135,0.2108 0.1185,0.2218 0.124,0.2333 0.1302,0.2455 0.1374,0.2579 0.1452,0.2711 0.213,0.3665 0.2399,0.3581 0.2655,0.3484 0.2901,0.3373 0.3132,0.3244 0.335,0.3102 0.3556,0.2948 0.3749,0.2775 0.3648,0.2417 0.3794,0.2245 0.3927,0.2059 0.4054,0.1865 0.4168,0.1659 0.4273,0.1439 0.4366,0.1207 0.4449,0.097 0.4286,0.068 0.4342,0.044 0.439,0.019 0.4431,-0.01 0.4461,-0.033 0.4482,-0.061 0.4496,-0.09 0.45,-0.1199 0.056,-0.019 0.068,-0.026 0.079,-0.034 0.088,-0.041 0.096,-0.047 0.1018,-0.053 0.1065,-0.058 0.1096,-0.063 0.083,-0.05 0.083,-0.053 0.083,-0.055 0.082,-0.057 0.08,-0.059 0.078,-0.06 0.075,-0.062 0.072,-0.063 0.084,-0.08 0.076,-0.082 0.067,-0.083 0.056,-0.083 0.044,-0.083 0.032,-0.083 0.017,-0.083 v -0.082 l -0.01,-0.062 -0.01,-0.057 -0.01,-0.053 -0.011,-0.049 -0.012,-0.046 -0.012,-0.042 -0.013,-0.04 -0.014,-0.037 -0.021,-0.053 -0.021,-0.049 -0.019,-0.045 -0.017,-0.044 -0.014,-0.043 -0.01,-0.044 -0.01,-0.046 7e-4,-0.049 v -0.035 l 0.01,-0.037 0.011,-0.04 0.015,-0.043 0.019,-0.047 0.023,-0.05 0.028,-0.055 0.033,-0.059 0.047,-0.076 0.054,-0.077 0.061,-0.077 0.067,-0.078 0.072,-0.078 0.076,-0.079 0.08,-0.08 0.082,-0.081 0.073,-0.071 0.074,-0.072 0.074,-0.073 0.074,-0.074 0.074,-0.075 0.073,-0.076 0.071,-0.077 0.069,-0.077 0.07,-0.084 0.067,-0.085 0.062,-0.086 0.057,-0.088 0.052,-0.089 0.046,-0.09 0.039,-0.092 0.031,-0.093 -0.089,0.044 -0.089,0.04 -0.089,0.038 -0.089,0.035 -0.089,0.032 -0.09,0.029 -0.09,0.027 -0.09,0.024 -0.093,0.022 -0.093,0.019 -0.094,0.016 -0.094,0.014 -0.094,0.011 -0.095,0.01 -0.096,0.01 h -0.096 -0.093 -0.093 -0.094 -0.095 l -0.096,-0.01 -0.096,-0.01 -0.097,-0.011 -0.098,-0.013 -0.1424,-0.3992 -0.15,-0.3879 -0.1576,-0.3769 -0.1653,-0.3664 -0.1734,-0.3563 -0.1811,-0.3468 -0.1892,-0.3376 -0.1973,-0.3286 -0.2176,-0.3385 -0.2271,-0.3298 -0.2364,-0.3213 -0.2459,-0.3137 -0.2556,-0.3065 -0.2654,-0.2997 -0.2753,-0.2935 -0.2852,-0.2879 -0.2775,-0.2657 -0.2866,-0.2616 -0.2956,-0.2579 -0.305,-0.2547 -0.3143,-0.2518 -0.3238,-0.2493 -0.3332,-0.2474 -0.3429,-0.2457 0.1599,-0.112 0.1499,-0.1156 0.1409,-0.1182 0.1332,-0.1197 0.1268,-0.1202 0.1215,-0.12 0.1175,-0.1186 0.1144,-0.1162 0.1319,-0.1319 0.1313,-0.1256 0.1328,-0.1182 0.1362,-0.1087 0.1413,-0.098 0.1486,-0.085 0.1576,-0.071 0.1686,-0.056 0.1387,-0.031 0.1474,-0.02 0.1566,-0.01 h 0.1669 l 0.1781,0.017 0.19,0.031 0.2031,0.046 0.2167,0.061 0.2678,0.088 0.2719,0.1001 0.2756,0.1114 0.2788,0.1217 0.2816,0.131 0.2842,0.1396 0.2863,0.1473 0.2879,0.154 0.2638,0.1457 0.2647,0.1497 0.2649,0.1534 0.265,0.1559 0.2647,0.1583 0.2641,0.1595 0.2633,0.1604 0.262,0.1603 0.2727,0.1673 0.2708,0.1659 0.2682,0.1633 0.2652,0.1604 0.2621,0.1563 0.2585,0.1517 0.2546,0.1461 0.2502,0.1399 -0.053,0.1534 -0.056,0.1492 -0.058,0.1454 -0.061,0.1416 -0.064,0.1379 -0.067,0.1344 -0.07,0.131 -0.072,0.1276 -0.081,0.1323 -0.084,0.1287 -0.088,0.1257 -0.091,0.1225 -0.095,0.1197 -0.099,0.1168 -0.103,0.1142 -0.1067,0.1116 -0.1049,0.1038 -0.1086,0.1018 -0.1123,0.1 -0.1162,0.098 -0.12,0.097 -0.1242,0.095 -0.1281,0.094 -0.1322,0.093 0.1322,-0.01 0.1304,-0.01 0.1285,-0.012 0.127,-0.015 0.1254,-0.018 0.124,-0.02 0.1226,-0.023 0.1211,-0.026 0.1246,-0.029 0.1234,-0.032 0.1223,-0.035 0.1213,-0.037 0.1205,-0.04 0.1196,-0.043 0.1191,-0.046 0.1184,-0.048 0.114,-0.049 0.1138,-0.052 0.1134,-0.054 0.1134,-0.057 0.1131,-0.059 0.1133,-0.062 0.1134,-0.064 0.1136,-0.067 -0.053,0.076 -0.053,0.076 -0.052,0.076 -0.052,0.076 -0.052,0.077 -0.052,0.077 -0.052,0.077 -0.052,0.077 -0.052,0.077 -0.052,0.077 -0.052,0.077 -0.052,0.077 -0.052,0.077 -0.052,0.077 -0.052,0.077 -0.053,0.076 -0.053,0.077 -0.053,0.077 -0.053,0.076 -0.053,0.076 -0.053,0.076 -0.054,0.075 -0.054,0.075 -0.054,0.074 0.1977,-0.011 0.1914,-0.022 0.1857,-0.032 0.1801,-0.042 0.1749,-0.051 0.1702,-0.059 0.166,-0.066 0.1619,-0.073 0.1653,-0.084 0.1619,-0.09 0.1588,-0.095 0.1561,-0.099 0.1539,-0.1032 0.152,-0.1061 0.1507,-0.1087 0.1498,-0.1101 0.1491,-0.1111 0.1491,-0.1111 0.1494,-0.1104 0.1502,-0.109 0.1512,-0.1069 0.153,-0.1039 0.155,-0.1004 0.1575,-0.096 0.09,-0.046 0.093,-0.034 0.096,-0.023 0.099,-0.014 h 0.1014 0.1036 l 0.1055,0.01 0.1072,0.015 0.098,0.018 0.099,0.021 0.1,0.024 0.1002,0.025 0.1004,0.026 0.1007,0.027 0.1006,0.026 0.1004,0.025 0.1052,0.024 0.1046,0.021 0.1037,0.017 0.1025,0.012 0.1012,0.01 h 0.1 l 0.098,-0.01 0.096,-0.015 0.064,-0.4392 0.062,-0.4224 0.058,-0.4064 0.054,-0.392 0.047,-0.3788 0.04,-0.3668 0.032,-0.3557 0.022,-0.3464 0.012,-0.4015 -0.01,-0.3918 -0.025,-0.3841 -0.047,-0.3786 -0.07,-0.3749 -0.096,-0.3737 -0.1239,-0.3742 -0.1538,-0.377 -0.1432,-0.2992 -0.1639,-0.3031 -0.1855,-0.3082 -0.2084,-0.3143 -0.232,-0.321 -0.2569,-0.3292 -0.2825,-0.3381 -0.3094,-0.3482 -0.3686,-0.4048 -0.3544,-0.3926 -0.3418,-0.382 -0.3305,-0.3731 -0.3207,-0.3662 -0.3123,-0.3609 -0.3054,-0.3575 -0.2999,-0.3559 -0.3067,-0.3687 -0.304,-0.3708 -0.3029,-0.3751 -0.3037,-0.3812 -0.306,-0.3892 -0.3099,-0.3993 -0.3155,-0.4116 -0.3225,-0.4253 -0.2666,-0.3545 -0.2731,-0.3659 -0.2805,-0.3783 -0.2887,-0.3919 -0.2979,-0.4066 -0.3078,-0.4221 -0.3187,-0.4387 -0.3304,-0.4566 -0.4273,-0.5696 -0.4472,-0.5549 -0.4669,-0.5411 -0.4859,-0.5281 -0.5048,-0.5161 -0.5231,-0.505 -0.5411,-0.4949 -0.5586,-0.4856 -0.5343,-0.4439 -0.5489,-0.4372 -0.5631,-0.4317 -0.577,-0.4266 -0.5906,-0.4226 -0.604,-0.4192 -0.6169,-0.4166 -0.6296,-0.4146 -0.5828,-0.3756 -0.5928,-0.3753 -0.6026,-0.3753 -0.6122,-0.3761 -0.6215,-0.3775 -0.6305,-0.3792 -0.6395,-0.3817 -0.6482,-0.3847 -1.0311,-0.6519 -1.0105,-0.7167 -0.9917,-0.7759 -0.975,-0.8295 -0.9603,-0.8775 -0.9475,-0.9195 -0.9368,-0.9563 -0.9281,-0.9872 -0.8554,-0.9388 -0.8511,-0.9561 -0.8488,-0.9689 -0.8476,-0.977 -0.8482,-0.9807 -0.8504,-0.9797 -0.8543,-0.9742 -0.8595,-0.9643 -0.8975,-0.9828 -0.9067,-0.9623 -0.9178,-0.9365 -0.9306,-0.9057 -0.9452,-0.87 -0.9616,-0.8291 -0.9798,-0.7834 -0.9997,-0.7322 0.7178,0.5693 0.7013,0.579 0.6849,0.5885 0.6691,0.5983 0.6537,0.608 0.6385,0.618 0.6236,0.6281 0.6094,0.6383 0.6063,0.6609 0.5921,0.6718 0.5785,0.6825 0.5648,0.6937 0.5518,0.705 0.5393,0.7162 0.5268,0.7277 0.5149,0.7395 0.4904,0.7312 0.4798,0.7424 0.4696,0.7538 0.4596,0.7653 0.4502,0.777 0.441,0.7886 0.4322,0.8004 0.4238,0.8126 -0.3365,-0.5091 -0.3416,-0.4999 -0.3468,-0.4911 -0.3522,-0.4825 -0.3579,-0.4742 -0.3636,-0.466 -0.3695,-0.4579 -0.3757,-0.4501 -0.3909,-0.453 -0.3976,-0.4452 -0.4045,-0.4378 -0.4117,-0.4304 -0.4191,-0.4232 -0.4266,-0.4166 -0.4342,-0.4098 -0.4422,-0.4034 -0.4396,-0.388 -0.4475,-0.3823 -0.4555,-0.3769 -0.4639,-0.3716 -0.4721,-0.3665 -0.4807,-0.3615 -0.4895,-0.3569 -0.4984,-0.3523 0.4977,0.5077 0.4776,0.5169 0.4583,0.5254 0.4402,0.534 0.4226,0.5423 0.4063,0.5502 0.3908,0.5579 0.3763,0.5654 0.3697,0.5839 0.3564,0.5911 0.3443,0.598 0.3331,0.6046 0.323,0.611 0.3137,0.6169 0.3054,0.6227 0.2982,0.628 0.2859,0.6203 0.2809,0.625 0.2767,0.6293 0.2735,0.6334 0.2713,0.6375 0.2699,0.6411 0.2696,0.6446 0.2701,0.6478 -0.2106,-0.021 -0.2105,-0.021 -0.2104,-0.021 -0.2105,-0.021 -0.2104,-0.021 -0.2105,-0.02 -0.2104,-0.021 -0.2105,-0.02 -1.6842,-0.1651 -0.072,-0.01 -0.1908,-0.019 -0.2696,-0.026 -0.3092,-0.03 -0.3091,-0.03 -0.2696,-0.026 -0.1907,-0.019 -0.072,-0.01 -0.4744,-0.4013 -0.4782,-0.3875 -0.482,-0.3741 -0.4859,-0.3611 -0.4899,-0.3486 -0.4942,-0.3364 -0.4984,-0.3248 -0.5027,-0.3136 -0.5205,-0.3101 -0.5253,-0.2993 -0.5303,-0.2885 -0.5354,-0.2784 -0.5406,-0.2688 -0.5459,-0.2596 -0.5514,-0.2507 -0.5569,-0.2423 -0.5482,-0.2284 -0.5538,-0.2213 -0.5595,-0.2146 -0.5652,-0.2084 -0.5712,-0.2024 -0.5772,-0.1971 -0.5832,-0.1918 -0.5895,-0.1874 0.4662,0.2277 0.4633,0.2286 0.4602,0.2301 0.4573,0.2319 0.4541,0.2344 0.4508,0.237 0.4475,0.2401 0.4439,0.244 0.4478,0.252 0.4438,0.2567 0.44,0.2619 0.4359,0.2675 0.4317,0.2737 0.4275,0.2801 0.4232,0.2873 0.4185,0.2948 0.4081,0.2977 0.4034,0.3059 0.3987,0.3144 0.394,0.3235 0.3891,0.3329 0.3843,0.3429 0.3792,0.3532 0.3741,0.364 -0.4557,-0.2712 -0.4562,-0.267 -0.457,-0.2628 -0.4577,-0.2587 -0.4586,-0.2542 -0.4598,-0.2499 -0.4611,-0.2455 -0.4626,-0.2409 -0.469,-0.2388 -0.4708,-0.2337 -0.4728,-0.2289 -0.4749,-0.224 -0.4772,-0.2188 -0.4798,-0.2137 -0.4822,-0.2085 -0.4851,-0.2033 -0.483,-0.1958 -0.4861,-0.1905 -0.4894,-0.185 -0.4926,-0.1795 -0.4961,-0.174 -0.4998,-0.1683 -0.5036,-0.1625 -0.5076,-0.1567 0.4582,0.2177 0.4549,0.2201 0.4514,0.2229 0.4481,0.2259 0.4445,0.2289 0.4413,0.2325 0.4377,0.2362 0.4344,0.24 0.4367,0.2478 0.4335,0.2522 0.43,0.2572 0.4267,0.262 0.4232,0.2674 0.4196,0.273 0.4164,0.2787 0.4128,0.2846 0.404,0.2873 0.4005,0.2936 0.3973,0.3001 0.394,0.3071 0.3907,0.3141 0.3875,0.3214 0.3841,0.3292 0.3809,0.337 -0.2668,-0.025 -0.2661,-0.022 -0.2654,-0.019 -0.2647,-0.016 -0.2641,-0.013 -0.2635,-0.011 -0.2631,-0.01 h -0.2629 -0.2652 -0.2651 -0.2648 l -0.2646,0.01 -0.2645,0.01 -0.2644,0.013 -0.2644,0.016 -0.2645,0.019 -0.2619,0.022 -0.2621,0.025 -0.2623,0.028 -0.2626,0.031 -0.2631,0.034 -0.2635,0.037 -0.264,0.04 -0.2645,0.043 0.1638,0.066 0.1609,0.069 0.1578,0.072 0.1551,0.074 0.1522,0.077 0.1497,0.079 0.147,0.082 0.1447,0.084 0.1464,0.09 0.1443,0.092 0.1419,0.095 0.1398,0.098 0.1378,0.1009 0.1358,0.1038 0.1341,0.1068 0.1323,0.1097 0.1268,0.1094 0.1254,0.1124 0.1242,0.1151 0.1229,0.1181 0.1218,0.1211 0.1209,0.124 0.1201,0.127 0.1193,0.1302 -0.4345,-0.086 -0.4322,-0.078 -0.4301,-0.07 -0.4283,-0.062 -0.4264,-0.055 -0.425,-0.047 -0.4238,-0.04 -0.4224,-0.032 -0.4327,-0.025 -0.4319,-0.018 -0.4314,-0.01 h -0.4311 l -0.4311,0.01 -0.4314,0.014 -0.4318,0.021 -0.4323,0.029 -0.4225,0.035 -0.4236,0.043 -0.4249,0.05 -0.4262,0.057 -0.428,0.064 -0.43,0.071 -0.4319,0.078 -0.4344,0.086 0.1775,0.041 0.175,0.044 0.1725,0.046 0.1704,0.049 0.1679,0.052 0.1659,0.055 0.1639,0.057 0.1618,0.06 0.1649,0.065 0.163,0.068 0.1613,0.071 0.1597,0.075 0.158,0.078 0.1567,0.081 0.1551,0.085 0.1538,0.088 0.1482,0.089 0.1471,0.092 0.1462,0.095 0.1453,0.099 0.1446,0.1024 0.144,0.1058 0.1435,0.1095 0.1428,0.113 h -0.446 -0.4425 l -0.4391,0.01 -0.4361,0.014 -0.4329,0.02 -0.4303,0.026 -0.4274,0.032 -0.425,0.038 -0.435,0.046 -0.433,0.054 -0.4306,0.062 -0.4289,0.07 -0.4271,0.078 -0.4256,0.087 -0.4243,0.096 -0.4233,0.1052 -0.4105,0.1115 -0.4097,0.1211 -0.4093,0.1307 -0.4089,0.1411 -0.4088,0.1513 -0.4087,0.1621 -0.4088,0.1729 -0.4091,0.1844 0.1989,0.043 0.1975,0.043 0.1963,0.044 0.1946,0.046 0.1935,0.047 0.1921,0.049 0.1906,0.051 0.1895,0.053 0.1921,0.057 0.1907,0.059 0.1896,0.062 0.1882,0.066 0.1869,0.069 0.1857,0.072 0.1842,0.076 0.183,0.08 0.1776,0.082 0.1764,0.086 0.1752,0.091 0.174,0.095 0.173,0.1002 0.1716,0.1053 0.1705,0.1104 0.1694,0.1159 -0.4929,0.1324 -0.4807,0.146 -0.4694,0.1588 -0.4585,0.1717 -0.4482,0.1838 -0.4385,0.1959 -0.4292,0.2074 -0.4208,0.2188 -0.427,0.238 -0.4191,0.2495 -0.4117,0.2603 -0.4049,0.2708 -0.3987,0.2809 -0.3934,0.2906 -0.3884,0.3 -0.3841,0.3089 -0.3666,0.3059 -0.3637,0.3136 -0.3615,0.3207 -0.3599,0.3275 -0.3585,0.3341 -0.3581,0.3403 -0.358,0.346 -0.3586,0.3513 0.1661,-0.012 0.1663,-0.012 0.1663,-0.012 0.1662,-0.012 0.1665,-0.011 0.1662,-0.012 0.1663,-0.012 0.1663,-0.012 h 0.057 l 0.1505,-0.01 0.2131,-0.015 0.2443,-0.017 0.2442,-0.017 0.2131,-0.015 0.1507,-0.01 h 0.057 l 0.1663,-0.011 0.1662,-0.011 0.1665,-0.012 0.1662,-0.011 0.1663,-0.012 0.1661,-0.011 0.1662,-0.012 0.1662,-0.012 -0.2918,0.3545 -0.2856,0.3561 -0.2794,0.3582 -0.2734,0.3601 -0.2674,0.3622 -0.2616,0.3645 -0.2559,0.3669 -0.2502,0.3693 -0.2486,0.3782 -0.2428,0.3809 -0.2372,0.3838 -0.2319,0.387 -0.2263,0.3902 -0.2212,0.3933 -0.2159,0.3969 -0.2109,0.4004 -0.2025,0.3974 -0.1978,0.401 -0.193,0.4049 -0.1886,0.4088 -0.1841,0.4128 -0.1798,0.4172 -0.1755,0.4212 -0.1715,0.4258 0.1919,-0.1166 0.1913,-0.1148 0.1907,-0.1125 0.1904,-0.1103 0.1905,-0.1077 0.1906,-0.105 0.1909,-0.1021 0.1913,-0.099 0.1976,-0.098 0.1987,-0.095 0.1998,-0.091 0.2012,-0.087 0.2027,-0.082 0.2046,-0.077 0.2064,-0.073 0.2087,-0.068 0.2053,-0.061 0.2077,-0.056 0.2104,-0.05 0.2132,-0.045 0.2162,-0.039 0.2194,-0.033 0.2228,-0.027 0.2265,-0.021 -0.2444,0.3218 -0.2367,0.3219 -0.2288,0.3221 -0.221,0.3229 -0.2133,0.3238 -0.2053,0.3251 -0.1977,0.3267 -0.1897,0.3285 -0.189,0.3437 -0.1806,0.3465 -0.1719,0.3495 -0.1635,0.3529 -0.1548,0.3568 -0.1463,0.3605 -0.1376,0.3651 -0.1291,0.3698 -0.1158,0.3602 -0.1079,0.365 -0.1,0.3705 -0.092,0.376 -0.084,0.3817 -0.076,0.3881 -0.068,0.3943 -0.059,0.4012 0.1431,-0.1237 0.1434,-0.1231 0.1438,-0.1225 0.1439,-0.1218 0.1445,-0.1212 0.1448,-0.1204 0.1452,-0.1198 0.1456,-0.119 0.1466,-0.1186 0.1474,-0.1177 0.1477,-0.1172 0.1486,-0.1162 0.149,-0.1155 0.1499,-0.1145 0.1505,-0.1135 0.1512,-0.1126 0.1517,-0.1111 0.1526,-0.1103 0.1534,-0.1092 0.1544,-0.1082 0.1552,-0.1071 0.1563,-0.1059 0.1572,-0.1049 0.1584,-0.1034 -0.139,0.3959 -0.1366,0.3957 -0.1336,0.3954 -0.1308,0.3952 -0.1278,0.3952 -0.1244,0.3953 -0.1212,0.3956 -0.1175,0.3958 -0.1149,0.4004 -0.1109,0.4009 -0.1069,0.4017 -0.1024,0.4028 -0.098,0.4037 -0.093,0.4049 -0.089,0.4062 -0.084,0.4075 -0.078,0.4049 -0.072,0.4066 -0.067,0.4082 -0.062,0.4102 -0.056,0.4124 -0.05,0.4146 -0.044,0.4167 -0.038,0.4193 0.098,-0.1705 0.1004,-0.1676 0.1024,-0.1646 0.1043,-0.1616 0.1064,-0.159 0.1084,-0.1563 0.1106,-0.1535 0.1129,-0.1511 0.1178,-0.1522 0.1203,-0.1498 0.1229,-0.1472 0.1254,-0.1448 0.1281,-0.1426 0.1307,-0.1403 0.1334,-0.1382 0.1362,-0.1363 0.1354,-0.131 0.1383,-0.1293 0.1411,-0.1276 0.144,-0.1259 0.1469,-0.1245 0.15,-0.123 0.1528,-0.1217 0.156,-0.1201 -0.027,0.3643 -0.035,0.3628 -0.042,0.3614 -0.048,0.3602 -0.054,0.3591 -0.059,0.3581 -0.063,0.3573 -0.066,0.3566 -0.069,0.357 -0.071,0.3566 -0.073,0.3562 -0.073,0.356 -0.073,0.3562 -0.072,0.3562 -0.071,0.3566 -0.069,0.357 -0.066,0.3566 -0.062,0.3573 -0.058,0.3581 -0.053,0.3593 -0.047,0.3604 -0.041,0.3615 -0.034,0.3631 -0.026,0.3645 0.038,-0.1606 0.054,-0.1495 0.068,-0.1384 0.082,-0.1276 0.094,-0.1175 0.1056,-0.1072 0.1159,-0.098 0.1247,-0.089 0.1301,-0.078 0.1364,-0.07 0.1418,-0.062 0.146,-0.054 0.1491,-0.047 0.1512,-0.04 0.152,-0.033 0.1518,-0.027 0.1801,-0.024 0.1765,-0.016 0.1708,-0.01 h 0.1634 0.154 l 0.1427,0.01 0.1296,0.015 0.1144,0.02 0.027,0.01 0.026,0.01 0.025,0.01 h 0.024 0.023 0.022 0.021 0.02 l 0.033,0.01 0.03,0.01 0.027,0.01 0.024,0.01 0.021,0.01 h 0.019 0.016 0.014 l 0.037,0.012 0.01,0.01 -0.015,7e-4 h -0.029 l -0.034,-0.01 -0.03,-0.01 -0.018,-0.01 -0.1207,0.3484 -0.1202,0.3538 -0.1168,0.3519 -0.113,0.3507 -0.1087,0.3494 -0.1042,0.3484 -0.099,0.3477 -0.094,0.3474 -0.091,0.359 -0.084,0.3591 -0.077,0.3593 -0.069,0.3601 -0.061,0.361 -0.053,0.3622 -0.044,0.3637 -0.034,0.3656 -0.024,0.357 -0.014,0.3591 v 0.3616 l 0.01,0.3643 0.018,0.3673 0.029,0.3705 0.033,0.3035 -10e-4,-0.066 0.013,-0.1844 0.028,-0.1886 0.042,-0.1917 0.055,-0.1935 0.067,-0.1941 0.07,-0.174 0.078,-0.1723 0.085,-0.1699 0.092,-0.1665 0.098,-0.1622 0.1026,-0.157 0.1072,-0.1509 0.1106,-0.144 0.1501,-0.1772 0.1534,-0.1611 0.1547,-0.1428 0.1543,-0.1226 0.1522,-0.1 0.1484,-0.075 0.1426,-0.049 0.1353,-0.02 h 0.035 l 0.034,-8e-4 0.032,-8e-4 0.031,-8e-4 h 0.029 0.028 0.026 l 0.025,7e-4 h 0.046 0.041 0.035 0.031 0.026 0.022 0.018 0.014 l 0.021,0.015 -0.01,0.015 -0.025,0.012 -0.035,0.01 h -0.038 l -0.032,-0.01 -0.017,-0.017 0.01,-0.03 -0.068,0.3067 -0.066,0.3064 -0.064,0.3059 -0.062,0.3053 -0.06,0.3052 -0.058,0.3048 -0.056,0.3047 -0.054,0.3045 -0.052,0.3077 -0.049,0.3079 -0.047,0.3079 -0.044,0.308 -0.041,0.3085 -0.039,0.3087 -0.035,0.3092 -0.033,0.3097 -0.029,0.3082 -0.026,0.3087 -0.023,0.3094 -0.02,0.3103 -0.016,0.3113 -0.013,0.312 -0.01,0.3131 -0.01,0.3141 0.061,-0.098 0.063,-0.095 0.065,-0.092 0.067,-0.089 0.069,-0.087 0.07,-0.084 0.072,-0.082 0.074,-0.079 0.078,-0.079 0.08,-0.077 0.081,-0.075 0.083,-0.073 0.085,-0.071 0.086,-0.07 0.088,-0.068 0.09,-0.067 0.089,-0.064 0.09,-0.063 0.092,-0.062 0.093,-0.061 0.094,-0.06 0.095,-0.059 0.096,-0.059 0.097,-0.058 -0.024,0.1835 -0.028,0.1851 -0.031,0.1866 -0.035,0.1879 -0.039,0.1888 -0.042,0.1894 -0.046,0.19 -0.049,0.1902 -0.051,0.1852 -0.053,0.1848 -0.056,0.1842 -0.059,0.1833 -0.061,0.1821 -0.063,0.1808 -0.066,0.179 -0.068,0.1772 -0.074,0.1852 -0.076,0.1824 -0.078,0.1792 -0.08,0.1759 -0.082,0.1723 -0.084,0.1681 -0.085,0.1639 -0.086,0.1591 -0.075,0.1365 -0.07,0.132 -0.066,0.1276 -0.061,0.1237 -0.057,0.1203 -0.053,0.1171 -0.048,0.1145 -0.044,0.1122 -0.048,0.1343 -0.042,0.1323 -0.036,0.1311 -0.031,0.1307 -0.025,0.131 -0.02,0.1322 -0.015,0.1339 -0.01,0.1367 v 0.1218 0.1248 0.1285 l 0.01,0.1325 0.01,0.1371 0.014,0.1423 0.017,0.1478 0.02,0.154 v -0.1324 l 0.014,-0.1338 0.029,-0.1345 0.043,-0.1347 0.056,-0.1338 0.068,-0.1323 0.078,-0.1303 0.088,-0.1272 0.088,-0.1138 0.095,-0.11 0.1001,-0.106 0.1048,-0.1013 0.1086,-0.096 0.1115,-0.09 0.1137,-0.084 0.1151,-0.077 0.1517,-0.09 0.1506,-0.075 0.1477,-0.06 0.1428,-0.043 0.1359,-0.025 0.1274,-0.01 0.1166,0.014 0.1041,0.037 0.031,0.014 0.029,0.014 0.028,0.013 0.026,0.012 0.025,0.011 0.024,0.01 0.022,0.01 0.021,0.01 0.055,0.019 0.019,0.01 -0.01,0.01 -0.021,0.044 -0.024,0.069 -0.026,0.071 -0.027,0.074 -0.029,0.077 -0.031,0.079 -0.032,0.081 -0.034,0.083 -0.036,0.085 -0.031,0.071 -0.032,0.073 -0.033,0.074 -0.034,0.075 -0.035,0.076 -0.037,0.077 -0.038,0.078 -0.039,0.079 -0.036,0.072 -0.037,0.072 -0.038,0.073 -0.039,0.073 -0.04,0.073 -0.041,0.074 -0.042,0.074 -0.043,0.074 -0.053,0.095 -0.054,0.1026 -0.054,0.1092 -0.055,0.1152 -0.056,0.1206 -0.056,0.1254 -0.057,0.1291 -0.057,0.1326 -0.05,0.1167 -0.05,0.118 -0.051,0.1193 -0.051,0.1198 -0.051,0.1199 -0.051,0.1196 -0.052,0.119 -0.052,0.1179 -0.057,0.1273 -0.058,0.1251 -0.058,0.122 -0.058,0.1183 -0.058,0.1142 -0.059,0.1092 -0.059,0.1041 -0.059,0.098 0.07,-0.058 0.078,-0.061 0.084,-0.064 0.09,-0.065 0.096,-0.066 0.1004,-0.066 0.1045,-0.066 0.1079,-0.065 0.099,-0.056 0.1011,-0.054 0.1025,-0.051 0.1033,-0.048 0.1038,-0.044 0.1038,-0.04 0.1033,-0.035 0.1024,-0.029 0.1223,-0.028 0.1195,-0.018 0.1158,-0.01 h 0.1112 l 0.1061,0.017 0.1,0.031 0.093,0.046 0.085,0.061 0.066,0.072 0.039,0.078 0.014,0.083 -0.01,0.087 -0.029,0.09 -0.047,0.093 -0.063,0.096 -0.076,0.097 -0.061,0.071 -0.066,0.071 -0.069,0.071 -0.072,0.071 -0.074,0.07 -0.075,0.069 -0.075,0.068 -0.074,0.067 -0.103,0.093 -0.097,0.089 -0.088,0.085 -0.076,0.08 -0.062,0.073 -0.045,0.067 -0.026,0.059 v 0.051 l 0.019,0.1249 0.014,0.1231 0.01,0.1213 v 0.1194 0.1178 l -0.01,0.116 -0.012,0.1143 -0.017,0.1127 -0.024,0.1167 -0.029,0.115 -0.035,0.113 -0.04,0.1114 -0.045,0.1098 -0.051,0.1082 -0.056,0.1066 -0.061,0.105 -0.061,0.096 -0.065,0.095 -0.07,0.093 -0.074,0.092 -0.078,0.091 -0.083,0.09 -0.087,0.089 -0.091,0.088 -0.045,-0.1221 -0.05,-0.134 -0.054,-0.1445 -0.058,-0.1542 -0.061,-0.1625 -0.064,-0.1694 -0.067,-0.1753 -0.069,-0.1798 -0.059,-0.1552 -0.06,-0.1567 -0.061,-0.1577 -0.061,-0.1577 -0.061,-0.1571 -0.061,-0.1557 -0.06,-0.1537 -0.059,-0.1509 -0.077,-0.1953 -0.074,-0.1869 -0.071,-0.1769 -0.067,-0.1651 -0.062,-0.1515 -0.057,-0.1362 -0.05,-0.1192 -0.043,-0.1001 -0.019,-0.042 -0.019,-0.039 -0.019,-0.037 -0.019,-0.035 -0.019,-0.033 -0.018,-0.031 -0.019,-0.028 -0.018,-0.027 -0.03,-0.04 -0.029,-0.035 -0.029,-0.031 -0.029,-0.027 -0.028,-0.023 -0.028,-0.02 -0.027,-0.017 -0.027,-0.014 -0.046,-0.02 -0.044,-0.014 -0.041,-0.01 -0.039,-0.01 -0.035,-0.01 -0.032,-0.01 -0.028,-0.011 -0.024,-0.016 -0.2313,-0.1928 -0.229,-0.1903 -0.2272,-0.188 -0.2254,-0.1855 -0.2241,-0.183 -0.2231,-0.1805 -0.2224,-0.1782 -0.2221,-0.1758 -0.2315,-0.1805 -0.2319,-0.178 -0.2323,-0.1755 -0.2331,-0.1726 -0.2344,-0.17 -0.2361,-0.1674 -0.2381,-0.1646 -0.2403,-0.1618 -0.2386,-0.1564 -0.2414,-0.1539 -0.2447,-0.1512 -0.2483,-0.1488 -0.2521,-0.1461 -0.2563,-0.1434 -0.2609,-0.1409 -0.2657,-0.1381 -0.027,-0.1959 -0.042,-0.1782 -0.056,-0.1616 -0.069,-0.1464 -0.081,-0.1324 -0.092,-0.1196 -0.1022,-0.108 -0.111,-0.098 -0.1286,-0.095 -0.1366,-0.086 -0.143,-0.078 -0.1481,-0.072 -0.1522,-0.067 -0.1546,-0.065 -0.156,-0.063 -0.1561,-0.063 -0.1564,-0.065 -0.1538,-0.068 -0.1497,-0.073 -0.1442,-0.079 -0.1376,-0.087 -0.1294,-0.097 -0.1199,-0.1078 -0.1091,-0.1207 -0.2616,-0.3318 -0.2568,-0.3437 -0.2523,-0.3548 -0.2483,-0.3643 -0.2446,-0.373 -0.2415,-0.3806 -0.2384,-0.3868 -0.236,-0.3922 -0.2241,-0.38 -0.2226,-0.3828 -0.2215,-0.3847 -0.2205,-0.3856 -0.22,-0.3854 -0.22,-0.3842 -0.22,-0.3822 -0.2207,-0.379 -0.2347,-0.3974 -0.2363,-0.3916 -0.2379,-0.3845 -0.2403,-0.3767 -0.2429,-0.3674 -0.2458,-0.3572 -0.2495,-0.3456 -0.2533,-0.333 -0.221,-0.2744 -0.2162,-0.253 -0.2122,-0.2322 -0.2087,-0.2123 -0.2061,-0.1931 -0.2041,-0.175 -0.2026,-0.1572 -0.2022,-0.1408 -0.2611,-0.1581 -0.263,-0.1334 -0.2659,-0.1104 -0.2707,-0.089 -0.2768,-0.069 -0.2843,-0.052 -0.2936,-0.035 -0.3039,-0.021 -0.2569,-0.01 h -0.2657 l -0.2754,0.01 -0.2859,0.012 -0.2971,0.016 -0.3093,0.02 -0.3221,0.023 -0.3361,0.025 -0.1303,-0.4378 -0.1553,-0.4155 -0.1788,-0.3937 -0.2014,-0.373 -0.2225,-0.353 -0.2429,-0.3339 -0.262,-0.3156 -0.2798,-0.2983 -0.3032,-0.2876 -0.3195,-0.2712 -0.3345,-0.2556 -0.3485,-0.2411 -0.3612,-0.2273 -0.3725,-0.2146 -0.3828,-0.2027 -0.3919,-0.1917 -0.3844,-0.1749 -0.3907,-0.1665 -0.3956,-0.1586 -0.3997,-0.1517 -0.4025,-0.1457 -0.4044,-0.1401 -0.4052,-0.1356 -0.4049,-0.1318 -0.4775,-0.8006 -0.494,-0.7664 -0.5091,-0.7356 -0.5226,-0.7081 -0.5347,-0.684 -0.5455,-0.6633 -0.5544,-0.6459 -0.5623,-0.6318 -0.5917,-0.6467 -0.597,-0.6388 -0.6001,-0.6349 -0.6019,-0.6347 -0.6021,-0.6382 -0.6002,-0.6455 -0.597,-0.6568 -0.592,-0.6716 -0.5377,-0.6332 -0.5307,-0.6519 -0.5225,-0.6735 -0.5131,-0.6982 -0.5024,-0.7256 -0.49,-0.756 -0.4768,-0.7894 -0.4622,-0.8259 -0.3952,-0.7552 -0.3704,-0.7544 -0.3419,-0.7532 -0.3098,-0.7511 -0.274,-0.7492 -0.2344,-0.7465 -0.1914,-0.7434 -0.1447,-0.74 -0.099,-0.7911 -0.036,-0.786 0.031,-0.7806 0.1033,-0.7743 0.1798,-0.7676 0.2609,-0.7605 0.3465,-0.7527 0.4367,-0.7446 0.3887,-0.5518 0.4438,-0.5466 0.5008,-0.5412 0.5596,-0.5356 0.6203,-0.5298 0.6832,-0.5238 0.7477,-0.5176 0.8141,-0.5111 1.0865,-0.6356 1.1065,-0.6199 1.1259,-0.6062 1.1441,-0.5942 1.1615,-0.5844 1.1778,-0.5765 1.1933,-0.5706 1.2079,-0.5667 1.1442,-0.5292 1.1555,-0.5293 1.1659,-0.5306 1.1755,-0.5339 1.1844,-0.5387 1.1927,-0.5451 1.2,-0.5532 1.2066,-0.5627 1.142,-0.5404 1.1463,-0.5517 1.1505,-0.5645 1.1537,-0.5786 1.1563,-0.594 1.1584,-0.611 1.1597,-0.629 1.1606,-0.6487 2.5427,-1.4739 2.5108,-1.5196 2.4756,-1.5662 2.4374,-1.6144 2.3959,-1.6639 2.3516,-1.7145 2.3042,-1.7665 2.2536,-1.82 2.2298,-1.9008 2.1717,-1.9583 2.1101,-2.0172 2.0453,-2.0773 1.9775,-2.1388 1.9063,-2.202 1.8318,-2.266 1.7545,-2.3318 1.6367,-2.3437 1.5566,-2.4089 1.4734,-2.4754 1.3874,-2.5435 1.2982,-2.6123 1.2061,-2.6829 1.1111,-2.7543 0.1238,-0.3453 -0.4232,0.7936 -0.6908,1.171 -0.8045,1.2669 -0.9028,1.3401 -0.9853,1.3909 -0.7149,0.9712 -0.7413,0.9772 -0.7626,0.9759 -0.7791,0.9676 -0.7903,0.9519 -0.7968,0.9289 -0.798,0.8988 -0.7941,0.8614 -1.2957,1.3273 -1.2486,1.1713 -1.1788,0.9825 -1.0855,0.7605 -0.9698,0.5055 -0.8311,0.2175 -0.669,-0.1036 -0.4844,-0.4577 -0.4159,-0.9562 -0.1558,-1.0063 0.08,-1.0514 0.2928,-1.0918 0.4816,-1.1274 0.6467,-1.1581 0.037,-0.056 -0.9216,0.3347 -1.123,0.2011 -1.1612,-0.011 -1.2001,-0.2424 -1.2394,-0.4929 -1.2794,-0.7621 -0.2454,-0.1971 -0.2125,-0.2238 -0.1879,-0.2502 -0.1716,-0.2767 -0.1635,-0.3031 -0.1637,-0.3291 -0.1718,-0.3553 -0.1884,-0.381 -0.1327,-0.2567 -0.1447,-0.2671 -0.1593,-0.2775 -0.1754,-0.2878 -0.1941,-0.2983 -0.2148,-0.3085 -0.2377,-0.3187 -0.2627,-0.329 -0.1951,-0.2312 -0.2085,-0.236 -0.2226,-0.2407 -0.2372,-0.2455 -0.2528,-0.2502 -0.2688,-0.2548 -0.2856,-0.2597 -0.3032,-0.2644 -0.5878,-0.5274 -0.6528,-0.6305 -0.7114,-0.7239 -0.7633,-0.8079 -0.8089,-0.8826 -0.848,-0.9477 -0.8806,-1.0033 -0.907,-1.0496 -0.712,-0.834003 -0.721,-0.8515 -0.7269,-0.8647 -0.7297,-0.8735 -0.7297,-0.8781 -0.7267,-0.8783 -0.7208,-0.8743 -0.7119,-0.8661 -0.8253,-1.0059 -0.8039,-0.9812 -0.7776,-0.9493 -0.7467,-0.9103 -0.7108,-0.8642 -0.67,-0.811 -0.6245,-0.7506 -0.574,-0.6834 0.039,0.412 0.087,0.4769 0.1295,0.5348 0.1661,0.5864 0.1965,0.6314 0.2212,0.67 0.2396,0.7019 0.2523,0.7273 0.2019,0.5806 0.2031,0.5889 0.2015,0.5943 0.1971,0.5964 0.1898,0.5956 0.1798,0.5918 0.167,0.5848 0.1513,0.5747 0.1763,0.7645 0.1344,0.7319 0.085,0.6915 0.029,0.6431 -0.034,0.5867 -0.1053,0.5228 -0.1832,0.450603 -0.2687,0.3704 -0.8928,0.6734 -1.0301,0.3268 -1.1516,0.011 -1.258,-0.275 -1.349,-0.5304 -1.4245,-0.755203 -1.4846,-0.9497 -1.5294,-1.1137 -1.0578,-0.8357 -1.0667,-0.8879 -1.0705,-0.9306 -1.0697,-0.9638 -1.0636,-0.9873 -1.0532,-1.0012 -1.0377,-1.0057 -1.0172,-1.0004 -1.301,-1.2938 -1.246,-1.2464 -1.1803,-1.1771 -1.1035,-1.086 -1.0156,-0.9728 -0.9167,-0.8381 -0.8064,-0.6813 z m 53.7514,31.879103 0.164,-0.06 1.0489,-0.5687 1.0127,-0.7239 0.8537,-0.743 0.8272,-0.834 0.801,-0.9123 0.7754,-0.9781 0.75,-1.0313 0.7253,-1.0719 0.7008,-1.0999 0.6769,-1.1154 0.7232,-1.2403 0.522,-0.9217 -0.5044,0.5993 -0.949,1.0781 -0.8216,0.9089 -0.8371,0.9134 -0.8428,0.9159 -0.8391,0.9166 -0.8261,0.9153 -0.8036,0.9121 -0.7712,0.9069 -0.7297,0.8998 -0.9058,1.2055 z m 9.5811,-11.3001 0.3927,-0.4663 0.8292,-1.05 0.745,-1.031 0.6444,-1.008803 0.5277,-0.9832 0.3946,-0.9544 0.2453,-0.9223 -0.5369,0.7839 -0.5617,0.9008 -0.5873,1.0002 -0.6132,1.082603 -0.6399,1.1479 -0.6671,1.1957 z m 7.1987,-0.1515 0.1381,-0.259 0.4162,-0.9118 0.2557,-0.7487 0.079,-0.5627 z m -35.4753,106.5605 v 0.1125 l 0.02,0.1719 0.038,0.1639 -0.053,-0.3778 z m 1.3435,-8.1709 v -0.01 z m -105.291,88.4794 0.054,0.2217 0.047,0.2031 0.041,0.1865 0.036,0.1715 0.032,0.1584 0.028,0.1474 0.025,0.1381 0.023,0.1305 0.028,0.16 0.027,0.1547 0.028,0.1532 0.031,0.1557 0.036,0.162 0.042,0.1727 0.049,0.1869 0.059,0.2054 0.039,0.1294 0.043,0.1378 0.048,0.1468 0.053,0.1569 0.057,0.1676 0.063,0.1788 0.069,0.1912 0.075,0.2041 0.1229,0.3241 0.14,0.3532 0.1555,0.3793 0.1696,0.4028 0.1826,0.4235 0.1937,0.4414 0.2034,0.4567 0.2118,0.469 0.1795,0.3937 0.1833,0.3987 0.1864,0.4021 0.1886,0.4042 0.1899,0.4046 0.1904,0.4035 0.1902,0.4009 0.1892,0.3967 0.2145,0.4479 0.2108,0.438 0.2057,0.4259 0.1995,0.4114 0.192,0.3944 0.1832,0.3754 0.1734,0.3538 0.162,0.33 0.1363,0.2832 0.1263,0.2753 0.1168,0.2681 0.1073,0.2617 0.099,0.2558 0.09,0.2507 0.082,0.2463 0.074,0.2427 0.077,0.2794 0.067,0.2764 0.058,0.2741 0.05,0.2733 0.042,0.2732 0.034,0.2744 0.028,0.2766 0.022,0.2798 0.015,0.2595 0.01,0.2638 0.01,0.2691 v 0.2751 0.2821 0.2898 0.2983 l -0.01,0.3076 -0.3635,-0.1488 -0.3698,-0.146 -0.3754,-0.1437 -0.38,-0.142 -0.3839,-0.1409 -0.387,-0.1403 -0.3893,-0.1403 -0.3908,-0.1409 -0.3833,-0.1391 -0.3833,-0.1407 -0.3825,-0.143 -0.3809,-0.1459 -0.3788,-0.1492 -0.3758,-0.153 -0.3721,-0.1574 -0.3678,-0.1623 -0.3789,-0.1759 -0.3724,-0.1824 -0.3651,-0.1898 -0.3568,-0.1976 -0.348,-0.206 -0.3379,-0.215 -0.3273,-0.2247 -0.3157,-0.235 -0.2885,-0.2381 -0.276,-0.2546 -0.2636,-0.2701 -0.252,-0.284 -0.2409,-0.2968 -0.2303,-0.308 -0.22,-0.3182 -0.2104,-0.3269 -0.1974,-0.328 -0.189,-0.3338 -0.181,-0.3387 -0.1736,-0.3422 -0.1667,-0.3444 -0.1602,-0.3455 -0.1541,-0.3451 -0.1485,-0.3438 -0.1605,-0.3821 -0.1547,-0.3772 -0.1495,-0.3704 -0.1451,-0.3619 -0.1413,-0.3515 -0.1379,-0.3395 -0.1356,-0.3257 -0.1338,-0.31 -0.094,-0.2076 -0.092,-0.1927 -0.09,-0.1786 -0.087,-0.1657 -0.084,-0.1536 -0.08,-0.1425 -0.076,-0.1324 -0.072,-0.1231 -0.1186,-0.202 -0.1021,-0.1811 -0.083,-0.1662 -0.063,-0.1569 -0.04,-0.1535 -0.016,-0.1557 0.011,-0.1636 0.04,-0.1776 0.04,-0.1197 0.052,-0.1286 0.065,-0.1389 0.078,-0.1504 0.092,-0.1635 0.106,-0.1778 0.1208,-0.1937 0.1359,-0.2108 v 0 l 0.1897,-0.2647 0.2141,-0.2529 0.2366,-0.242 0.2572,-0.2317 0.2757,-0.2222 0.2926,-0.2137 0.3071,-0.2057 0.3199,-0.1987 0.2964,-0.1728 0.3035,-0.1683 0.3097,-0.1645 0.3141,-0.161 0.3173,-0.1583 0.3191,-0.156 0.3196,-0.1544 0.3184,-0.1533 0.3346,-0.1619 0.3303,-0.162 0.3244,-0.1627 0.3165,-0.1642 0.3074,-0.1662 0.2965,-0.1691 0.2839,-0.1724 z" /></g><style
     type="text/css"
     id="style1">
	.st0{display:none;}
</style></svg>
