<?xml version="1.0" encoding="UTF-8" standalone="no"?>
<svg
   viewBox="0 0 399.99999 400.00002"
   width="400"
   height="400"
   version="1.1"
   id="svg12"
   xml:space="preserve"
   xmlns:xlink="http://www.w3.org/1999/xlink"
   xmlns="http://www.w3.org/2000/svg"
   xmlns:svg="http://www.w3.org/2000/svg"><desc
     id="desc1">dragons1.dxf - scale = 1.000000, origin = (0.000000, 0.000000), method = manual</desc><defs
     id="defs4"><linearGradient
       id="swatch31"><stop
         style="stop-color:#000000;stop-opacity:1;"
         offset="0"
         id="stop31" /></linearGradient><linearGradient
       id="swatch21"><stop
         style="stop-color:#000000;stop-opacity:1;"
         offset="0"
         id="stop21" /></linearGradient><linearGradient
       id="swatch4"><stop
         style="stop-color:#1da62b;stop-opacity:1;"
         offset="0"
         id="stop4" /></linearGradient><linearGradient
       id="swatch6"><stop
         style="stop-color:#334f9f;stop-opacity:1;"
         offset="0"
         id="stop6" /></linearGradient><linearGradient
       id="swatch5"><stop
         style="stop-color:#e72d2e;stop-opacity:1;"
         offset="0"
         id="stop5" /></linearGradient><linearGradient
       id="swatch16"><stop
         style="stop-color:#d9d900;stop-opacity:1;"
         offset="0"
         id="stop16" /></linearGradient><linearGradient
       id="swatch18"><stop
         style="stop-color:#52bec8;stop-opacity:1;"
         offset="0"
         id="stop18" /></linearGradient><linearGradient
       id="swatch17"><stop
         style="stop-color:#b4539c;stop-opacity:1;"
         offset="0"
         id="stop17" /></linearGradient><linearGradient
       xlink:href="#swatch21"
       id="linearGradient21"
       x1="1.5576313"
       y1="16.004883"
       x2="30.400904"
       y2="16.004883"
       gradientUnits="userSpaceOnUse" /><linearGradient
       xlink:href="#swatch21"
       id="linearGradient1"
       gradientUnits="userSpaceOnUse"
       x1="1.5576313"
       y1="16.004883"
       x2="30.400904"
       y2="16.004883" /><linearGradient
       xlink:href="#swatch21"
       id="linearGradient2"
       gradientUnits="userSpaceOnUse"
       x1="1.5576313"
       y1="16.004883"
       x2="30.400904"
       y2="16.004883" /><linearGradient
       xlink:href="#swatch21"
       id="linearGradient3"
       gradientUnits="userSpaceOnUse"
       x1="1.5576313"
       y1="16.004883"
       x2="30.400904"
       y2="16.004883" /><linearGradient
       xlink:href="#swatch21"
       id="linearGradient4"
       gradientUnits="userSpaceOnUse"
       x1="1.5576313"
       y1="16.004883"
       x2="30.400904"
       y2="16.004883" /><linearGradient
       xlink:href="#swatch21"
       id="linearGradient5"
       gradientUnits="userSpaceOnUse"
       x1="1.5576313"
       y1="16.004883"
       x2="30.400904"
       y2="16.004883" /></defs><g
     id="g12"><g
       id="g2"
       style="fill:url(#linearGradient21);fill-opacity:1;stroke-width:1.91759"
       transform="matrix(8.3437723,0,0,8.3437723,66.659559,66.45793)"><path
         style="fill:url(#linearGradient1);fill-opacity:1;stroke-width:1.91759"
         d="m 10.42,11.87 a 0.5,0.5 0 1 0 0,1 H 23.5 a 0.5,0.5 0 0 0 0,-1 z"
         id="path13" /><path
         style="fill:url(#linearGradient2);fill-opacity:1;stroke-width:1.91759"
         d="m 9.98,15.33 a 0.5,0.5 0 0 1 0.5,-0.5 H 23.5 a 0.5,0.5 0 0 1 0,1 H 10.48 a 0.5,0.5 0 0 1 -0.5,-0.5 z"
         id="path6" /><path
         style="fill:url(#linearGradient3);fill-opacity:1;stroke-width:1.91759"
         d="m 10.48,17.85 a 0.5,0.5 0 1 0 0,1 H 23.5 a 0.5,0.5 0 0 0 0,-1 z"
         id="path5" /><path
         style="fill:url(#linearGradient4);fill-opacity:1;stroke-width:1.91759"
         d="m 10.01,21.33 a 0.5,0.5 0 0 1 0.5,-0.5 h 7.96 a 0.5,0.5 0 0 1 0,1 h -7.96 a 0.5,0.5 0 0 1 -0.5,-0.5 z"
         id="path1-1" /><path
         id="path2-7"
         style="fill:url(#linearGradient5);fill-opacity:1;stroke-width:1.91759"
         d="m 4.4746094,1.5585937 c -1.5028468,0 -2.6110828,1.2402661 -2.8964844,2.6855469 a 0.55870391,0.55870391 0 0 1 -0.00195,0.00195 l -0.00195,0.00977 c -0.048237,0.2676818 0.01,0.5531731 0.1582032,0.78125 C 1.873079,5.2500663 2.1155876,5.4414063 2.453125,5.4414062 H 5.9980469 A 0.55870391,0.55870391 0 0 1 6.5566406,6.0019531 L 6.5078125,27.068359 v 0.002 c 0.00124,0.885238 0.3660746,1.76287 0.9921875,2.388672 0.6261129,0.625803 1.5053873,0.991382 2.390625,0.992188 h 15.669922 c 0.06269,0 0.122261,-0.002 0.177734,-0.0078 a 0.55870391,0.55870391 0 0 1 0.05078,-0.0039 c 1.842249,-0.02597 2.897358,-0.399761 3.525391,-0.875 0.62427,-0.472391 0.8862,-1.070265 1.064453,-1.753906 0.06166,-0.275198 -0.0084,-0.575868 -0.183594,-0.796875 -0.257723,-0.307117 -0.655739,-0.491047 -1.05664,-0.484375 a 0.55870391,0.55870391 0 0 1 -0.0098,0 H 27.949219 A 0.55870391,0.55870391 0 0 1 27.390625,25.970703 V 5.4492187 C 27.3905,4.4332425 26.97231,3.4234818 26.253906,2.7050781 25.535503,1.9866744 24.525742,1.5684845 23.509766,1.5683594 H 9.5996094 a 0.55870391,0.55870391 0 0 1 -0.00977,-0.00977 z m 3.0507812,0.8828126 h 0.074219 a 0.55870391,0.55870391 0 0 1 0.00977,0.00977 h 15.900391 c 0.294419,6.6e-5 0.0019,-0.015244 0.294921,0.013672 0.292997,0.028916 3.1e-4,-0.012565 0.289063,0.044922 0.288753,0.057487 0.0054,-0.015192 0.287109,0.070312 0.28173,0.085505 0.0034,-0.013091 0.275391,0.099609 0.271996,0.1127 0.0079,-0.01381 0.267578,0.125 0.259643,0.1388103 0.0072,-0.011241 0.251953,0.1523438 0.244792,0.1635844 0.0087,-0.012956 0.236328,0.1738281 0.227585,0.1867842 0.0086,-0.00897 0.216797,0.1992187 0.208186,0.2081861 0.01243,-0.010787 0.199219,0.2167969 0.186784,0.2275842 0.01024,-0.00846 0.173828,0.2363281 0.163585,0.2447918 0.01353,-0.00769 0.152344,0.2519531 0.13881,0.2596433 0.0123,-0.00442 0.125,0.2675782 0.1127,0.2719956 0.0141,-0.00634 0.09961,0.2753906 0.0855,0.28173 0.01283,-0.00164 0.07031,0.2871094 0.05749,0.2887527 0.01601,-0.00393 0.04492,0.2890625 0.02892,0.2929962 0.01361,5.023e-4 0.01367,0.2949218 V 25.970703 a 0.55870391,0.55870391 0 0 1 -0.558593,0.558594 H 14.400391 a 0.55870391,0.55870391 0 0 1 -0.02539,0 c -0.543264,-0.02413 -1.07648,0.364346 -1.220703,0.888672 -0.168026,0.612175 0.11413,-0.187777 -0.138672,0.394531 -0.252802,0.582308 0.137198,-0.169672 -0.195312,0.371094 -0.332511,0.540766 0.161412,-0.146586 -0.244141,0.341797 -0.405553,0.488383 0.181402,-0.125428 -0.289063,0.300781 -0.470465,0.426209 0.195867,-0.09572 -0.330078,0.259765 -0.525945,0.35549 0.209553,-0.06866 -0.361328,0.208985 -0.570881,0.277644 0.2157,-0.03798 -0.388672,0.15625 -0.604371,0.194232 0.217543,-0.0073 -0.408203,0.09961 l 0.41211,-0.488281 a 0.55870391,0.55870391 0 0 1 -0.50586,0.505859 H 9.890625 a 0.55870391,0.55870391 0 0 1 -0.00195,0 c -0.4920789,-9.07e-4 -0.00382,0.04778 -0.4863281,-0.04883 -0.4825036,-0.09661 -0.014254,0.04604 -0.46875,-0.142578 C 8.4790977,29.188338 8.9130327,29.419903 8.5039063,29.146484 8.0947798,28.873065 8.4731279,29.183715 8.125,28.835937 7.7768721,28.48816 8.0882837,28.865882 7.8144531,28.457031 7.5406226,28.04818 7.7711039,28.48165 7.5820312,28.027344 7.3929586,27.573038 7.5365451,28.041 7.4394531,27.558594 c -0.097092,-0.482406 -0.047426,0.0057 -0.048828,-0.486328 a 0.55870391,0.55870391 0 0 1 0,-0.0039 L 7.4394531,6.0058594 V 6 a 0.55870391,0.55870391 0 0 1 0.00195,-0.00195 V 5 C 7.4411262,4.3952077 7.296878,3.7904335 7.0253906,3.25 a 0.55870391,0.55870391 0 0 1 0.5,-0.8085937 z" /></g></g><style
     type="text/css"
     id="style1">
	.st0{display:none;}
</style></svg>
