<?xml version="1.0" encoding="UTF-8" standalone="no"?>
<svg
   viewBox="0 0 399.99999 400.00002"
   width="400"
   height="400"
   version="1.1"
   id="svg12"
   xml:space="preserve"
   xmlns="http://www.w3.org/2000/svg"
   xmlns:svg="http://www.w3.org/2000/svg"><desc
     id="desc1">dragons1.dxf - scale = 1.000000, origin = (0.000000, 0.000000), method = manual</desc><defs
     id="defs4"><linearGradient
       id="swatch21"><stop
         style="stop-color:#000000;stop-opacity:1;"
         offset="0"
         id="stop21" /></linearGradient><linearGradient
       id="swatch4"><stop
         style="stop-color:#1da62b;stop-opacity:1;"
         offset="0"
         id="stop4" /></linearGradient><linearGradient
       id="swatch6"><stop
         style="stop-color:#334f9f;stop-opacity:1;"
         offset="0"
         id="stop6" /></linearGradient><linearGradient
       id="swatch5"><stop
         style="stop-color:#e72d2e;stop-opacity:1;"
         offset="0"
         id="stop5" /></linearGradient><linearGradient
       id="swatch16"><stop
         style="stop-color:#d9d900;stop-opacity:1;"
         offset="0"
         id="stop16" /></linearGradient><linearGradient
       id="swatch18"><stop
         style="stop-color:#52bec8;stop-opacity:1;"
         offset="0"
         id="stop18" /></linearGradient><linearGradient
       id="swatch17"><stop
         style="stop-color:#b4539c;stop-opacity:1;"
         offset="0"
         id="stop17" /></linearGradient></defs><g
     id="g12"
     transform="translate(-2460)"><g
       id="g39"
       transform="matrix(38.109863,0,0,38.484647,2738.1754,-42866.781)"
       style="stroke-width:0.0261118"><rect
         style="fill:#ffffff;fill-opacity:1;fill-rule:evenodd;stroke-width:0.000681827"
         id="rect2"
         width="10.495972"
         height="10.393755"
         x="-7.299293"
         y="1113.8671"
         rx="9.609349e-06"
         ry="9.5157675e-06" /><path
         style="fill:url(#swatch4);fill-opacity:1;fill-rule:nonzero;stroke:none;stroke-width:0.0261118"
         d="m -2.8364736,1119.9657 c 0.1074284,0 0.2061118,0.01 0.2937437,0.028 0.018719,0.01 0.036641,0.01 0.054306,0.015 l 0.3781969,0.6552 c -0.00412,0.018 -0.00853,0.035 -0.013993,0.053 -0.051979,0.1724 -0.1656167,0.36 -0.3253428,0.5508 -0.3194521,0.3817 -0.8228976,0.7729 -1.3689619,1.0881 -0.5460644,0.3153 -1.1364909,0.5555 -1.6267849,0.6413 -0.245147,0.043 -0.4646524,0.046 -0.6399164,0.01 -0.1752639,-0.041 -0.3045514,-0.1239 -0.3834043,-0.2605 -0.078853,-0.1366 -0.085739,-0.2907 -0.03376,-0.4631 0.051979,-0.1724 0.1656167,-0.36 0.3253428,-0.5508 0.3194521,-0.3817 0.8215515,-0.7729 1.3676159,-1.0881 0.5460644,-0.3153 1.1364908,-0.5555 1.6267848,-0.6413 0.1225734,-0.022 0.2387443,-0.033 0.3461727,-0.035 z"
         id="path36" /><path
         style="fill:url(#swatch5);fill-opacity:1;stroke:none;stroke-width:0.0261118"
         d="m -1.2661562,1119.9657 c 0.1074284,0 0.2235992,0.013 0.34617268,0.036 0.49029404,0.086 1.08072042,0.3261 1.62678483,0.6413 0.54606429,0.3153 1.04816369,0.7065 1.36761589,1.0882 0.1597261,0.1908 0.2733638,0.3784 0.3253427,0.5508 0.051979,0.1723 0.045093,0.3265 -0.03376,0.463 -0.078853,0.1366 -0.2081403,0.2194 -0.3834043,0.2606 -0.1752639,0.041 -0.3947693,0.037 -0.6399164,-0.01 -0.49029394,-0.086 -1.0807204,-0.3259 -1.6267848,-0.6412 -0.54606434,-0.3153 -1.0495099,-0.7064 -1.368962,-1.0881 -0.159726,-0.1909 -0.2733638,-0.3785 -0.3253428,-0.5509 -0.00546,-0.018 -0.00987,-0.036 -0.013993,-0.053 l 0.3782677,-0.6552 c 0.017644,-0.01 0.03554,-0.01 0.054236,-0.014 0.087632,-0.021 0.1863154,-0.03 0.2937438,-0.029 z"
         id="path35" /><path
         style="fill:url(#swatch6);fill-opacity:1;stroke:none;stroke-width:0.0261118"
         d="m -2.0513149,1115.0924 c 0.1570169,0 0.2929672,0.073 0.4158181,0.2052 0.1228509,0.1318 0.2281146,0.324 0.3131921,0.5575 0.1701548,0.4672 0.2578582,1.0966 0.2578582,1.7254 0,0.6289 -0.087703,1.2582 -0.2578582,1.7253 -0.085077,0.2336 -0.1903412,0.4258 -0.3131921,0.5576 -0.012872,0.014 -0.025975,0.026 -0.039145,0.039 h -0.7534179 c -0.013147,-0.012 -0.026223,-0.025 -0.039074,-0.039 -0.122851,-0.1318 -0.2281146,-0.324 -0.3131921,-0.5576 -0.1701548,-0.4671 -0.2578582,-1.0964 -0.2578582,-1.7253 0,-0.6288 0.087703,-1.2582 0.2578582,-1.7254 0.085078,-0.2335 0.1903411,-0.4257 0.3131921,-0.5575 0.1228509,-0.1318 0.2588011,-0.2036 0.4158188,-0.2052 z"
         id="path34" /><path
         id="path31-9"
         style="display:inline;fill:url(#swatch21);fill-opacity:1;stroke:none;stroke-width:0.0261118"
         d="m -2.0708341,1117.32 a 0.2612489,0.2612489 0 0 0 -0.2417398,0.2605 0.2612489,0.2612489 0 0 0 0.087074,0.1937 l -2.0072134,3.4774 a 0.2612489,0.2612489 0 0 0 -0.3423468,0.2475 0.2612489,0.2612489 0 0 0 0.5160353,0.055 h 4.01541877 a 0.2612489,0.2612489 0 0 0 0.51603536,-0.055 0.2612489,0.2612489 0 0 0 -0.34234683,-0.2475 l -2.0072134,-3.4774 a 0.2612489,0.2612489 0 0 0 0.087074,-0.1937 0.2612489,0.2612489 0 0 0 -0.2807772,-0.2605 z m -0.06047,0.5084 a 0.2612489,0.2612489 0 0 0 0.1599792,0 l 2.00756764,3.4776 a 0.2612489,0.2612489 0 0 0 -0.08006042,0.1396 H -4.0588117 a 0.2612489,0.2612489 0 0 0 -0.08006,-0.1396 z" /><path
         id="path32"
         style="display:inline;fill:url(#swatch21);fill-opacity:1;stroke:none;stroke-width:0.0261118"
         d="m -2.0513149,1114.9844 c -0.1898959,0 -0.3581197,0.092 -0.4954534,0.2389 -0.1373338,0.1474 -0.2478039,0.3528 -0.3361828,0.5954 -0.176758,0.4852 -0.2632429,1.1231 -0.2632429,1.7618 0,0.6387 0.086485,1.2765 0.2632429,1.7618 0.076156,0.2091 0.1688015,0.3902 0.2808136,0.5308 -0.177367,-0.028 -0.3800125,-0.018 -0.5994257,0.023 -0.5093986,0.089 -1.1072587,0.3345 -1.6618909,0.6548 -0.5546322,0.3202 -1.065402,0.7145 -1.3973021,1.111 -0.1659501,0.1983 -0.287435,0.3971 -0.3456058,0.59 -0.058171,0.1929 -0.050753,0.3831 0.044564,0.5481 0.095317,0.1651 0.2561294,0.2658 0.4522705,0.3119 0.196141,0.046 0.4284,0.041 0.6830993,-0.01 0.5093986,-0.089 1.1072942,-0.3332 1.6619264,-0.6534 0.5546322,-0.3203 1.0653665,-0.7159 1.3972666,-1.1125 0.14184,-0.1694 0.250815,-0.3392 0.3159197,-0.5055 0.065107,0.1662 0.1740967,0.336 0.3159198,0.5055 0.3319001,0.3966 0.84263436,0.7922 1.39726652,1.1124 0.55463222,0.3202 1.1525278,0.5642 1.66192638,0.6534 0.2546993,0.044 0.4869584,0.05 0.6830994,0.01 0.1961411,-0.046 0.3569531,-0.1468 0.4522704,-0.3119 0.095317,-0.165 0.1027356,-0.3552 0.044564,-0.5481 -0.058171,-0.1928 -0.1796558,-0.3916 -0.3456059,-0.5899 -0.3319001,-0.3966 -0.8426699,-0.7909 -1.39730201,-1.1111 -0.55463222,-0.3203 -1.15249234,-0.5656 -1.66189095,-0.6548 -0.21981414,-0.038 -0.42281964,-0.047 -0.60041754,-0.021 0.1124565,-0.1407 0.2054251,-0.3223 0.2818055,-0.532 0.176758,-0.4853 0.26324285,-1.1231 0.26324285,-1.7618 0,-0.6387 -0.0864849,-1.2766 -0.26324285,-1.7618 -0.088379,-0.2427 -0.1988491,-0.448 -0.3361828,-0.5954 -0.1373332,-0.1474 -0.305557,-0.2371 -0.4954529,-0.239 z m 0,0.108 c 0.1570169,0 0.2929672,0.073 0.4158181,0.2052 0.1228509,0.1318 0.2281146,0.324 0.3131921,0.5575 0.1701548,0.4672 0.2578582,1.0966 0.2578582,1.7254 0,0.6289 -0.087703,1.2582 -0.2578582,1.7253 -0.085077,0.2336 -0.1903412,0.4258 -0.3131921,0.5576 -0.012872,0.014 -0.025975,0.026 -0.039145,0.039 h -0.7534179 c -0.013147,-0.012 -0.026223,-0.025 -0.039074,-0.039 -0.122851,-0.1318 -0.2281146,-0.324 -0.3131921,-0.5576 -0.1701548,-0.4671 -0.2578582,-1.0964 -0.2578582,-1.7253 0,-0.6288 0.087703,-1.2582 0.2578582,-1.7254 0.085078,-0.2335 0.1903411,-0.4257 0.3131921,-0.5575 0.1228509,-0.1318 0.2588011,-0.2036 0.4158188,-0.2052 z m 0.7851587,4.8733 c 0.1074284,0 0.2235992,0.013 0.34617268,0.036 0.49029404,0.086 1.08072042,0.3261 1.62678483,0.6413 0.54606429,0.3153 1.04816369,0.7065 1.36761589,1.0882 0.1597261,0.1908 0.2733638,0.3784 0.3253427,0.5508 0.051979,0.1723 0.045093,0.3265 -0.03376,0.463 -0.078853,0.1366 -0.2081403,0.2194 -0.3834043,0.2606 -0.1752639,0.041 -0.3947693,0.037 -0.6399164,-0.01 -0.49029394,-0.086 -1.0807204,-0.3259 -1.6267848,-0.6412 -0.54606434,-0.3153 -1.0495099,-0.7064 -1.368962,-1.0881 -0.159726,-0.1909 -0.2733638,-0.3785 -0.3253428,-0.5509 -0.00546,-0.018 -0.00987,-0.036 -0.013993,-0.053 l 0.3782677,-0.6552 c 0.017644,-0.01 0.03554,-0.01 0.054236,-0.014 0.087632,-0.021 0.1863154,-0.03 0.2937438,-0.029 z m -1.5703174,0 c 0.1074284,0 0.2061118,0.01 0.2937437,0.028 0.018719,0.01 0.036641,0.01 0.054306,0.015 l 0.3781969,0.6552 c -0.00412,0.018 -0.00853,0.035 -0.013993,0.053 -0.051979,0.1724 -0.1656167,0.36 -0.3253428,0.5508 -0.3194521,0.3817 -0.8228976,0.7729 -1.3689619,1.0881 -0.5460644,0.3153 -1.1364909,0.5555 -1.6267849,0.6413 -0.245147,0.043 -0.4646524,0.046 -0.6399164,0.01 -0.1752639,-0.041 -0.3045514,-0.1239 -0.3834043,-0.2605 -0.078853,-0.1366 -0.085739,-0.2907 -0.03376,-0.4631 0.051979,-0.1724 0.1656167,-0.36 0.3253428,-0.5508 0.3194521,-0.3817 0.8215515,-0.7729 1.3676159,-1.0881 0.5460644,-0.3153 1.1364908,-0.5555 1.6267848,-0.6413 0.1225734,-0.022 0.2387443,-0.033 0.3461727,-0.035 z" /></g></g><style
     type="text/css"
     id="style1">
	.st0{display:none;}
</style></svg>
